<svg width="145" height="42" viewBox="0 0 145 42" fill="none" xmlns="http://www.w3.org/2000/svg">
<path d="M144.194 37.1563C144.194 39.3946 142.349 41.2076 140.065 41.2076H4.94C2.65792 41.2076 0.805542 39.3946 0.805542 37.1563V4.84901C0.805542 2.61184 2.65792 0.79248 4.94 0.79248H140.064C142.349 0.79248 144.193 2.61184 144.193 4.84901L144.194 37.1563Z" fill="black"/>
<path d="M139.63 0.841316C142.116 0.841316 144.139 2.81925 144.139 5.25V36.75C144.139 39.1808 142.116 41.1587 139.63 41.1587H5.37037C2.88389 41.1587 0.860602 39.1808 0.860602 36.75V5.25C0.860602 2.81925 2.88389 0.841316 5.37037 0.841316H139.63ZM139.63 3.8147e-06H5.37037C2.41801 3.8147e-06 0 2.36382 0 5.25V36.75C0 39.6362 2.41801 42 5.37037 42H139.63C142.582 42 145 39.6362 145 36.75V5.25C145 2.36382 142.582 3.8147e-06 139.63 3.8147e-06Z" fill="#A6A6A6"/>
<path d="M32.3598 20.7732C32.3286 17.389 35.1942 15.7426 35.3253 15.666C33.7023 13.3528 31.1869 13.0368 30.3029 13.0116C28.1902 12.7942 26.1409 14.2474 25.0646 14.2474C23.9669 14.2474 22.3096 13.0326 20.5235 13.0683C18.2249 13.1029 16.0746 14.4039 14.8953 16.4241C12.4615 20.5432 14.2766 26.5965 16.6085 29.926C17.7749 31.5567 19.1379 33.3774 20.9219 33.3133C22.6673 33.243 23.3193 32.2255 25.4255 32.2255C27.5125 32.2255 28.1247 33.3133 29.9442 33.2724C31.8173 33.243 32.9967 31.6344 34.1223 29.989C35.4703 28.12 36.0116 26.2794 36.0331 26.1849C35.989 26.1702 32.3952 24.8293 32.3598 20.7732Z" fill="white"/>
<path d="M28.9227 10.8213C29.8615 9.67363 30.5038 8.11228 30.3255 6.52783C28.9668 6.58663 27.2676 7.44658 26.2891 8.56903C25.4234 9.55813 24.65 11.1793 24.8498 12.7039C26.3761 12.8152 27.9432 11.9511 28.9227 10.8213Z" fill="white"/>
<path d="M52.6833 10.5095C52.6833 11.7454 52.3042 12.6757 51.547 13.3004C50.8456 13.8769 49.8489 14.1656 48.5578 14.1656C47.9177 14.1656 47.3699 14.1383 46.9113 14.0837V7.33115C47.5095 7.23665 48.154 7.18835 48.85 7.18835C50.0798 7.18835 51.0067 7.4498 51.6318 7.9727C52.3321 8.56385 52.6833 9.4091 52.6833 10.5095ZM51.4965 10.54C51.4965 9.7388 51.2795 9.12455 50.8456 8.69615C50.4117 8.2688 49.778 8.0546 48.9434 8.0546C48.589 8.0546 48.2871 8.0777 48.0369 8.126V13.2595C48.1754 13.2805 48.4289 13.2899 48.7973 13.2899C49.6587 13.2899 50.3236 13.0558 50.7919 12.5875C51.2602 12.1192 51.4965 11.4367 51.4965 10.54Z" fill="white"/>
<path d="M58.9763 11.5889C58.9763 12.3501 58.754 12.9738 58.3093 13.4631C57.8432 13.9661 57.2256 14.217 56.4544 14.217C55.7112 14.217 55.1193 13.9766 54.6779 13.4936C54.2375 13.0116 54.0173 12.4037 54.0173 11.6708C54.0173 10.9043 54.244 10.2753 54.6994 9.7871C55.1548 9.29885 55.767 9.0542 56.5382 9.0542C57.2814 9.0542 57.8786 9.29465 58.3308 9.7766C58.7604 10.2449 58.9763 10.8497 58.9763 11.5889ZM57.8088 11.6246C57.8088 11.1678 57.7079 10.7762 57.507 10.4496C57.2707 10.0548 56.9345 9.85745 56.4974 9.85745C56.0452 9.85745 55.7015 10.0548 55.4652 10.4496C55.2633 10.7762 55.1634 11.1741 55.1634 11.6445C55.1634 12.1013 55.2643 12.4929 55.4652 12.8195C55.709 13.2143 56.0484 13.4117 56.4866 13.4117C56.9163 13.4117 57.2535 13.2111 57.4963 12.809C57.7046 12.4761 57.8088 12.0813 57.8088 11.6246Z" fill="white"/>
<path d="M67.4143 9.15491L65.83 14.1046H64.7989L64.1427 11.9553C63.9762 11.4187 63.8408 10.8853 63.7356 10.3561H63.7152C63.6174 10.9 63.4821 11.4324 63.3081 11.9553L62.611 14.1046H61.5681L60.0784 9.15491H61.2351L61.8076 11.508C61.9462 12.0645 62.06 12.5947 62.1513 13.0966H62.1717C62.2555 12.6829 62.3941 12.1558 62.5896 11.5185L63.3081 9.15596H64.2254L64.9138 11.4681C65.0803 12.0319 65.2157 12.5748 65.3198 13.0977H65.351C65.4273 12.5884 65.5422 12.0456 65.6947 11.4681L66.3091 9.15596H67.4143V9.15491Z" fill="white"/>
<path d="M73.2497 14.1047H72.1241V11.2697C72.1241 10.3961 71.7847 9.95928 71.1037 9.95928C70.7697 9.95928 70.5001 10.079 70.2906 10.3194C70.0833 10.5599 69.9781 10.8434 69.9781 11.1678V14.1036H68.8525V10.5693C68.8525 10.1346 68.8385 9.66318 68.8116 9.15288H69.8009L69.8535 9.92673H69.8846C70.0157 9.68628 70.2112 9.48783 70.4679 9.32928C70.7729 9.14448 71.1145 9.05103 71.4882 9.05103C71.9608 9.05103 72.3539 9.20013 72.6665 9.49938C73.0553 9.86583 73.2497 10.4129 73.2497 11.1395V14.1047Z" fill="white"/>
<path d="M76.3538 14.1046H75.2292V6.88379H76.3538V14.1046Z" fill="white"/>
<path d="M82.9809 11.5889C82.9809 12.3501 82.7585 12.9738 82.3138 13.4631C81.8477 13.9661 81.229 14.217 80.4589 14.217C79.7146 14.217 79.1228 13.9766 78.6824 13.4936C78.242 13.0116 78.0219 12.4037 78.0219 11.6708C78.0219 10.9043 78.2485 10.2753 78.7039 9.7871C79.1593 9.29885 79.7715 9.0542 80.5416 9.0542C81.286 9.0542 81.8821 9.29465 82.3353 9.7766C82.765 10.2449 82.9809 10.8497 82.9809 11.5889ZM81.8123 11.6246C81.8123 11.1678 81.7113 10.7762 81.5104 10.4496C81.2752 10.0548 80.938 9.85745 80.5019 9.85745C80.0486 9.85745 79.7049 10.0548 79.4697 10.4496C79.2678 10.7762 79.1679 11.1741 79.1679 11.6445C79.1679 12.1013 79.2688 12.4929 79.4697 12.8195C79.7135 13.2143 80.0529 13.4117 80.4911 13.4117C80.9208 13.4117 81.257 13.2111 81.4997 12.809C81.7091 12.4761 81.8123 12.0813 81.8123 11.6246Z" fill="white"/>
<path d="M88.4285 14.1047H87.4178L87.334 13.5345H87.3029C86.957 13.9892 86.464 14.217 85.8239 14.217C85.3459 14.217 84.9593 14.0669 84.6682 13.7687C84.404 13.4978 84.2719 13.1607 84.2719 12.7607C84.2719 12.1559 84.5296 11.6949 85.0484 11.3757C85.5661 11.0565 86.2943 10.9001 87.232 10.9074V10.815C87.232 10.163 86.8818 9.8375 86.1805 9.8375C85.681 9.8375 85.2407 9.96035 84.8604 10.2039L84.6317 9.48155C85.1021 9.197 85.6832 9.0542 86.3684 9.0542C87.6917 9.0542 88.3555 9.7367 88.3555 11.1017V12.9245C88.3555 13.419 88.3802 13.8128 88.4285 14.1047ZM87.2599 12.4037V11.6403C86.0183 11.6193 85.3975 11.9522 85.3975 12.6378C85.3975 12.8961 85.4684 13.0893 85.6134 13.2185C85.7584 13.3476 85.9431 13.4117 86.1633 13.4117C86.4103 13.4117 86.6413 13.335 86.8518 13.1828C87.0634 13.0295 87.1933 12.8352 87.2417 12.5969C87.2535 12.5433 87.2599 12.4782 87.2599 12.4037Z" fill="white"/>
<path d="M94.8247 14.1046H93.8258L93.7731 13.3098H93.742C93.423 13.9146 92.8795 14.217 92.1158 14.217C91.5058 14.217 90.9977 13.9828 90.595 13.5145C90.1922 13.0462 89.9913 12.4383 89.9913 11.6917C89.9913 10.8906 90.2094 10.2417 90.6476 9.74609C91.0719 9.28409 91.5917 9.05309 92.2104 9.05309C92.8902 9.05309 93.3661 9.27674 93.6367 9.72509H93.6582V6.88379H94.7849V12.7711C94.7849 13.2531 94.7978 13.6972 94.8247 14.1046ZM93.6582 12.0172V11.1919C93.6582 11.0491 93.6475 10.9336 93.6271 10.8454C93.5637 10.5808 93.4273 10.3582 93.22 10.1787C93.0105 9.99914 92.7581 9.90884 92.4671 9.90884C92.0471 9.90884 91.7184 10.0716 91.4768 10.3981C91.2373 10.7247 91.1159 11.1415 91.1159 11.6508C91.1159 12.1401 91.2308 12.537 91.4617 12.8425C91.7055 13.168 92.0342 13.3308 92.4456 13.3308C92.8151 13.3308 93.1104 13.1953 93.3349 12.9234C93.5519 12.6724 93.6582 12.37 93.6582 12.0172Z" fill="white"/>
<path d="M104.452 11.5889C104.452 12.3501 104.229 12.9738 103.785 13.4631C103.318 13.9661 102.702 14.217 101.93 14.217C101.187 14.217 100.596 13.9766 100.153 13.4936C99.7127 13.0116 99.4926 12.4037 99.4926 11.6708C99.4926 10.9043 99.7192 10.2753 100.175 9.7871C100.63 9.29885 101.242 9.0542 102.014 9.0542C102.757 9.0542 103.355 9.29465 103.806 9.7766C104.236 10.2449 104.452 10.8497 104.452 11.5889ZM103.285 11.6246C103.285 11.1678 103.184 10.7762 102.983 10.4496C102.746 10.0548 102.411 9.85745 101.973 9.85745C101.521 9.85745 101.178 10.0548 100.94 10.4496C100.738 10.7762 100.639 11.1741 100.639 11.6445C100.639 12.1013 100.74 12.4929 100.94 12.8195C101.184 13.2143 101.524 13.4117 101.962 13.4117C102.391 13.4117 102.73 13.2111 102.973 12.809C103.18 12.4761 103.285 12.0813 103.285 11.6246Z" fill="white"/>
<path d="M110.504 14.1047H109.379V11.2697C109.379 10.3961 109.04 9.95928 108.358 9.95928C108.024 9.95928 107.754 10.079 107.546 10.3194C107.338 10.5599 107.233 10.8434 107.233 11.1678V14.1036H106.107V10.5693C106.107 10.1346 106.094 9.66318 106.067 9.15288H107.055L107.108 9.92673H107.139C107.271 9.68628 107.467 9.48783 107.722 9.32928C108.028 9.14448 108.369 9.05103 108.744 9.05103C109.215 9.05103 109.608 9.20013 109.921 9.49938C110.311 9.86583 110.504 10.4129 110.504 11.1395V14.1047Z" fill="white"/>
<path d="M118.079 9.97919H116.84V12.3837C116.84 12.9948 117.06 13.3003 117.496 13.3003C117.698 13.3003 117.866 13.2835 117.998 13.2489L118.027 14.0836C117.804 14.1655 117.512 14.2065 117.152 14.2065C116.708 14.2065 116.362 14.0742 116.112 13.8096C115.86 13.545 115.736 13.0998 115.736 12.475V9.97919H114.996V9.15494H115.736V8.24774L116.839 7.92224V9.15389H118.078V9.97919H118.079Z" fill="white"/>
<path d="M124.038 14.1046H122.912V11.2906C122.912 10.4034 122.572 9.95924 121.892 9.95924C121.37 9.95924 121.014 10.2165 120.818 10.731C120.785 10.8391 120.766 10.9714 120.766 11.1268V14.1036H119.641V6.88379H120.766V9.86684H120.787C121.142 9.32399 121.65 9.05309 122.308 9.05309C122.774 9.05309 123.16 9.20219 123.466 9.50144C123.847 9.87419 124.038 10.4286 124.038 11.1615V14.1046Z" fill="white"/>
<path d="M130.185 11.3956C130.185 11.593 130.17 11.7589 130.143 11.8944H126.768C126.783 12.3837 126.944 12.7564 127.256 13.0147C127.542 13.2457 127.91 13.3612 128.362 13.3612C128.861 13.3612 129.316 13.2835 129.727 13.1271L129.903 13.8915C129.423 14.0952 128.858 14.197 128.204 14.197C127.42 14.197 126.802 13.9713 126.355 13.5198C125.906 13.0683 125.684 12.4624 125.684 11.7022C125.684 10.9557 125.891 10.3341 126.309 9.83848C126.745 9.30928 127.335 9.04468 128.079 9.04468C128.807 9.04468 129.36 9.30928 129.734 9.83848C130.036 10.2585 130.185 10.7782 130.185 11.3956ZM129.111 11.1111C129.12 10.7845 129.046 10.5031 128.893 10.2658C128.698 9.96028 128.4 9.80698 127.997 9.80698C127.63 9.80698 127.33 9.95608 127.102 10.2553C126.915 10.4937 126.804 10.7782 126.768 11.1111H129.111Z" fill="white"/>
<path d="M57.6187 33.0791H55.1795L53.8434 28.9747H49.1991L47.9263 33.0791H45.5515L50.1528 19.1057H52.9948L57.6187 33.0791ZM53.4406 27.2527L52.2323 23.6039C52.1044 23.2312 51.8649 22.3534 51.5115 20.9716H51.4686C51.3279 21.5659 51.1013 22.4437 50.7898 23.6039L49.6029 27.2527H53.4406Z" fill="white"/>
<path d="M69.4518 27.9174C69.4518 29.631 68.9781 30.9855 68.0308 31.9798C67.1822 32.865 66.1286 33.307 64.8708 33.307C63.5132 33.307 62.5379 32.8303 61.944 31.8769H61.901V37.1847H59.6111V26.3203C59.6111 25.243 59.5821 24.1374 59.5262 23.0034H61.5401L61.6679 24.6004H61.7109C62.4746 23.3971 63.6335 22.7965 65.1888 22.7965C66.4046 22.7965 67.4196 23.2659 68.2316 24.2056C69.0458 25.1464 69.4518 26.3833 69.4518 27.9174ZM67.1189 27.9993C67.1189 27.0186 66.8933 26.2101 66.4401 25.5738C65.9449 24.9102 65.2801 24.5784 64.4466 24.5784C63.8816 24.5784 63.3682 24.7632 62.9096 25.1275C62.4499 25.495 62.1491 25.9749 62.0084 26.5692C61.9375 26.8464 61.9021 27.0732 61.9021 27.2517V28.9317C61.9021 29.6646 62.1319 30.283 62.5917 30.7881C63.0514 31.2931 63.6485 31.5451 64.3832 31.5451C65.2457 31.5451 65.917 31.2196 66.3971 30.5707C66.8783 29.9208 67.1189 29.064 67.1189 27.9993Z" fill="white"/>
<path d="M81.3064 27.9174C81.3064 29.631 80.8327 30.9855 79.8843 31.9798C79.0369 32.865 77.9832 33.307 76.7255 33.307C75.3678 33.307 74.3926 32.8303 73.7997 31.8769H73.7567V37.1847H71.4668V26.3203C71.4668 25.243 71.4378 24.1374 71.382 23.0034H73.3958L73.5237 24.6004H73.5666C74.3292 23.3971 75.4881 22.7965 77.0445 22.7965C78.2593 22.7965 79.2743 23.2659 80.0884 24.2056C80.8993 25.1464 81.3064 26.3833 81.3064 27.9174ZM78.9735 27.9993C78.9735 27.0186 78.7469 26.2101 78.2936 25.5738C77.7985 24.9102 77.1358 24.5784 76.3012 24.5784C75.7352 24.5784 75.2229 24.7632 74.7631 25.1275C74.3034 25.495 74.0038 25.9749 73.8631 26.5692C73.7933 26.8464 73.7567 27.0732 73.7567 27.2517V28.9317C73.7567 29.6646 73.9866 30.283 74.4441 30.7881C74.9038 31.2921 75.501 31.5451 76.2379 31.5451C77.1003 31.5451 77.7716 31.2196 78.2517 30.5707C78.7329 29.9208 78.9735 29.064 78.9735 27.9993Z" fill="white"/>
<path d="M94.5604 29.1606C94.5604 30.3492 94.1383 31.3162 93.2909 32.0627C92.3596 32.8786 91.0632 33.286 89.3974 33.286C87.8593 33.286 86.6262 32.9962 85.6929 32.4156L86.2235 30.5497C87.2288 31.144 88.3319 31.4422 89.5338 31.4422C90.3962 31.4422 91.0675 31.2511 91.5498 30.871C92.0299 30.4909 92.2694 29.9806 92.2694 29.3443C92.2694 28.7773 92.0718 28.2996 91.6755 27.9121C91.2813 27.5247 90.6229 27.1645 89.7035 26.8317C87.2009 25.9192 85.9507 24.5826 85.9507 22.8249C85.9507 21.6762 86.3889 20.7343 87.2664 20.0014C88.1407 19.2675 89.3071 18.901 90.7657 18.901C92.0664 18.901 93.1469 19.1226 94.0094 19.5646L93.4369 21.3895C92.6314 20.9611 91.7206 20.7469 90.7013 20.7469C89.8957 20.7469 89.2663 20.9412 88.8152 21.3276C88.4339 21.673 88.2427 22.0941 88.2427 22.5928C88.2427 23.1451 88.4608 23.6019 88.899 23.961C89.2803 24.2928 89.9731 24.6519 90.9784 25.0393C92.2082 25.5234 93.1115 26.0893 93.6926 26.7382C94.2715 27.385 94.5604 28.1946 94.5604 29.1606Z" fill="white"/>
<path d="M102.132 24.6833H99.6075V29.5753C99.6075 30.8195 100.052 31.4411 100.944 31.4411C101.353 31.4411 101.692 31.4065 101.961 31.3372L102.024 33.0372C101.573 33.202 100.979 33.285 100.243 33.285C99.339 33.285 98.6323 33.0151 98.1221 32.4764C97.6141 31.9368 97.3584 31.0316 97.3584 29.7601V24.6812H95.8547V23.0012H97.3584V21.1564L99.6075 20.4928V23.0012H102.132V24.6833Z" fill="white"/>
<path d="M113.52 27.9584C113.52 29.5071 113.067 30.7787 112.162 31.773C111.214 32.7968 109.955 33.3071 108.386 33.3071C106.874 33.3071 105.67 32.8167 104.772 31.836C103.874 30.8553 103.425 29.6174 103.425 28.1253C103.425 26.564 103.887 25.2851 104.814 24.2907C105.738 23.2953 106.986 22.7976 108.556 22.7976C110.068 22.7976 111.285 23.288 112.203 24.2697C113.082 25.2221 113.52 26.4516 113.52 27.9584ZM111.144 28.0308C111.144 27.1016 110.941 26.3046 110.53 25.64C110.05 24.8357 109.363 24.4346 108.474 24.4346C107.554 24.4346 106.854 24.8367 106.374 25.64C105.963 26.3057 105.76 27.1152 105.76 28.0728C105.76 29.0021 105.963 29.799 106.374 30.4626C106.869 31.2669 107.561 31.668 108.454 31.668C109.328 31.668 110.014 31.2585 110.509 30.4416C110.932 29.7644 111.144 28.959 111.144 28.0308Z" fill="white"/>
<path d="M120.963 24.9721C120.737 24.9312 120.495 24.9102 120.242 24.9102C119.436 24.9102 118.813 25.2073 118.375 25.8027C117.993 26.3277 117.802 26.9913 117.802 27.7924V33.0792H115.513L115.535 26.1765C115.535 25.0152 115.506 23.9578 115.449 23.0044H117.444L117.527 24.9322H117.591C117.832 24.2697 118.214 23.7363 118.736 23.3362C119.246 22.9761 119.797 22.7965 120.391 22.7965C120.602 22.7965 120.794 22.8112 120.963 22.8375V24.9721Z" fill="white"/>
<path d="M131.205 27.5645C131.205 27.9656 131.178 28.3037 131.121 28.5799H124.251C124.278 29.5753 124.61 30.3365 125.248 30.8615C125.827 31.3309 126.575 31.5661 127.495 31.5661C128.512 31.5661 129.44 31.4075 130.274 31.0894L130.633 32.6434C129.658 33.0592 128.507 33.266 127.178 33.266C125.58 33.266 124.325 32.8061 123.412 31.8874C122.501 30.9686 122.045 29.7349 122.045 28.1872C122.045 26.6678 122.469 25.4026 123.319 24.3935C124.208 23.3162 125.41 22.7776 126.922 22.7776C128.408 22.7776 129.532 23.3162 130.296 24.3935C130.901 25.2493 131.205 26.3077 131.205 27.5645ZM129.021 26.9839C129.036 26.3203 128.887 25.747 128.576 25.2629C128.18 24.6403 127.571 24.3295 126.752 24.3295C126.003 24.3295 125.394 24.6329 124.929 25.2419C124.548 25.726 124.321 26.3066 124.251 26.9828H129.021V26.9839Z" fill="white"/>
</svg>
