<svg width="145" height="42" viewBox="0 0 145 42" fill="none" xmlns="http://www.w3.org/2000/svg">
<path d="M139.63 42H5.37037C2.41801 42 0 39.6362 0 36.75V5.25C0 2.36381 2.41801 1.90735e-06 5.37037 1.90735e-06H139.63C142.582 1.90735e-06 145 2.36381 145 5.25V36.75C145 39.6362 142.582 42 139.63 42Z" fill="black"/>
<path d="M139.63 0.841314C142.116 0.841314 144.139 2.81925 144.139 5.25V36.75C144.139 39.1808 142.116 41.1587 139.63 41.1587H5.37037C2.88389 41.1587 0.860602 39.1808 0.860602 36.75V5.25C0.860602 2.81925 2.88389 0.841314 5.37037 0.841314H139.63ZM139.63 1.90735e-06H5.37037C2.41801 1.90735e-06 0 2.36381 0 5.25V36.75C0 39.6362 2.41801 42 5.37037 42H139.63C142.582 42 145 39.6362 145 36.75V5.25C145 2.36381 142.582 1.90735e-06 139.63 1.90735e-06Z" fill="#A6A6A6"/>
<path d="M11.208 7.91577C10.8925 8.23865 10.7099 8.74133 10.7099 9.39233V32.6131C10.7099 33.2641 10.8925 33.7668 11.208 34.0896L11.2859 34.1605L24.5963 21.1536V20.8465L11.2859 7.83965L11.208 7.91577Z" fill="url(#paint0_linear_5_3259)"/>
<path d="M29.0282 25.4915L24.5963 21.1536V20.8465L29.0336 16.5087L29.1329 16.5651L34.3878 19.4881C35.8875 20.3176 35.8875 21.6826 34.3878 22.5173L29.1329 25.435L29.0282 25.4915Z" fill="url(#paint1_linear_5_3259)"/>
<path d="M29.133 25.435L24.5963 21L11.208 34.0896C11.7061 34.6015 12.5184 34.6632 13.4421 34.1513L29.133 25.435Z" fill="url(#paint2_linear_5_3259)"/>
<path d="M29.133 16.5651L13.4421 7.84875C12.5184 7.34213 11.7061 7.40382 11.208 7.91569L24.5963 21L29.133 16.5651Z" fill="url(#paint3_linear_5_3259)"/>
<path d="M50.9299 10.7559C50.9299 11.6327 50.6614 12.3349 50.1324 12.8586C49.5242 13.4794 48.7321 13.7918 47.7614 13.7918C46.8337 13.7918 46.0415 13.4741 45.3917 12.8481C44.7406 12.2128 44.4156 11.4332 44.4156 10.5C44.4156 9.56682 44.7406 8.78719 45.3917 8.15719C46.0415 7.52588 46.8337 7.20825 47.7614 7.20825C48.2232 7.20825 48.6636 7.30144 49.0838 7.47469C49.5027 7.64925 49.8437 7.8855 50.0908 8.17688L49.5296 8.73075C49.0986 8.23332 48.5119 7.98788 47.7614 7.98788C47.0847 7.98788 46.498 8.21888 45.9999 8.68481C45.5072 9.15206 45.2601 9.75713 45.2601 10.5C45.2601 11.2429 45.5072 11.8532 45.9999 12.3204C46.498 12.7811 47.0847 13.0174 47.7614 13.0174C48.4797 13.0174 49.0838 12.7811 49.5605 12.3152C49.8746 12.0068 50.0532 11.5815 50.1002 11.0381H47.7614V10.2795H50.8816C50.9192 10.4436 50.9299 10.6024 50.9299 10.7559Z" fill="white" stroke="white" stroke-width="0.16" stroke-miterlimit="10"/>
<path d="M55.8801 8.12572H52.9492V10.1207H55.5914V10.8793H52.9492V12.8743H55.8801V13.6474H52.1194V7.35266H55.8801V8.12572Z" fill="white" stroke="white" stroke-width="0.16" stroke-miterlimit="10"/>
<path d="M59.3734 13.6474H58.5437V8.12572H56.746V7.35266H61.1725V8.12572H59.3734V13.6474Z" fill="white" stroke="white" stroke-width="0.16" stroke-miterlimit="10"/>
<path d="M64.376 13.6474V7.35266H65.2044V13.6474H64.376Z" fill="white" stroke="white" stroke-width="0.16" stroke-miterlimit="10"/>
<path d="M68.8763 13.6474H68.0533V8.12572H66.2488V7.35266H70.6807V8.12572H68.8763V13.6474Z" fill="white" stroke="white" stroke-width="0.16" stroke-miterlimit="10"/>
<path d="M79.0613 12.8376C78.4262 13.4741 77.6394 13.7918 76.701 13.7918C75.7571 13.7918 74.9704 13.4741 74.3353 12.8376C73.7016 12.2023 73.3861 11.4227 73.3861 10.5C73.3861 9.57732 73.7016 8.79769 74.3353 8.16244C74.9704 7.52588 75.7571 7.20825 76.701 7.20825C77.6341 7.20825 78.4208 7.52588 79.0559 8.16769C79.695 8.80819 80.0105 9.58257 80.0105 10.5C80.0105 11.4227 79.695 12.2023 79.0613 12.8376ZM74.9489 12.3099C75.4269 12.7811 76.0082 13.0174 76.701 13.0174C77.3884 13.0174 77.9751 12.7811 78.4477 12.3099C78.9243 11.8388 79.166 11.2337 79.166 10.5C79.166 9.76632 78.9243 9.16125 78.4477 8.69007C77.9751 8.21888 77.3884 7.98263 76.701 7.98263C76.0082 7.98263 75.4269 8.21888 74.9489 8.69007C74.4723 9.16125 74.2306 9.76632 74.2306 10.5C74.2306 11.2337 74.4723 11.8388 74.9489 12.3099Z" fill="white" stroke="white" stroke-width="0.16" stroke-miterlimit="10"/>
<path d="M81.1745 13.6474V7.35266H82.1814L85.3124 12.2483H85.3486L85.3124 11.0382V7.35266H86.1408V13.6474H85.2761L81.9975 8.51029H81.9613L81.9975 9.72566V13.6474H81.1745Z" fill="white" stroke="white" stroke-width="0.16" stroke-miterlimit="10"/>
<path d="M73.182 22.8401C70.6593 22.8401 68.5984 24.717 68.5984 27.3066C68.5984 29.8751 70.6593 31.7717 73.182 31.7717C75.7101 31.7717 77.771 29.8751 77.771 27.3066C77.771 24.717 75.7101 22.8401 73.182 22.8401ZM73.182 30.0129C71.7978 30.0129 70.6069 28.896 70.6069 27.3066C70.6069 25.6961 71.7978 24.5989 73.182 24.5989C74.5663 24.5989 75.7625 25.6961 75.7625 27.3066C75.7625 28.896 74.5663 30.0129 73.182 30.0129ZM63.1811 22.8401C60.653 22.8401 58.5975 24.717 58.5975 27.3066C58.5975 29.8751 60.653 31.7717 63.1811 31.7717C65.7078 31.7717 67.7647 29.8751 67.7647 27.3066C67.7647 24.717 65.7078 22.8401 63.1811 22.8401ZM63.1811 30.0129C61.7955 30.0129 60.6006 28.896 60.6006 27.3066C60.6006 25.6961 61.7955 24.5989 63.1811 24.5989C64.5653 24.5989 65.7562 25.6961 65.7562 27.3066C65.7562 28.896 64.5653 30.0129 63.1811 30.0129ZM51.2803 24.2091V26.1069H55.9163C55.7807 27.1674 55.4182 27.9471 54.8624 28.4904C54.1857 29.1467 53.1318 29.8751 51.2803 29.8751C48.4273 29.8751 46.1933 27.6242 46.1933 24.8351C46.1933 22.0461 48.4273 19.7951 51.2803 19.7951C52.823 19.7951 53.9454 20.3844 54.7738 21.1483L56.1419 19.8109C54.9832 18.7294 53.4419 17.8986 51.2803 17.8986C47.368 17.8986 44.08 21.0105 44.08 24.8351C44.08 28.6598 47.368 31.7717 51.2803 31.7717C53.3949 31.7717 54.9832 31.0944 56.2318 29.8239C57.5113 28.5731 57.9101 26.8144 57.9101 25.3943C57.9101 24.9533 57.8725 24.5477 57.8053 24.2091H51.2803ZM99.9439 25.6804C99.5667 24.6816 98.4026 22.8401 96.0316 22.8401C93.6821 22.8401 91.7259 24.6501 91.7259 27.3066C91.7259 29.8082 93.6619 31.7717 96.2572 31.7717C98.3556 31.7717 99.5667 30.5209 100.065 29.7924L98.5074 28.7779C97.9878 29.5207 97.2802 30.0129 96.2572 30.0129C95.2408 30.0129 94.5118 29.5575 94.0446 28.6598L100.155 26.1883L99.9439 25.6804ZM93.7143 27.1674C93.6619 25.4454 95.0824 24.5634 96.1001 24.5634C96.8976 24.5634 97.5743 24.9533 97.7998 25.5111L93.7143 27.1674ZM88.7481 31.5H90.7566V18.375H88.7481V31.5ZM85.4587 23.835H85.3916C84.9405 23.3126 84.0799 22.8401 82.9897 22.8401C80.7019 22.8401 78.6101 24.8036 78.6101 27.321C78.6101 29.8239 80.7019 31.7717 82.9897 31.7717C84.0799 31.7717 84.9405 31.2952 85.3916 30.7571H85.4587V31.3976C85.4587 33.1052 84.5256 34.0226 83.0206 34.0226C81.7934 34.0226 81.0322 33.1564 80.718 32.4279L78.9713 33.1406C79.4748 34.3245 80.808 35.7814 83.0206 35.7814C85.3755 35.7814 87.3625 34.4269 87.3625 31.1312V23.1118H85.4587V23.835ZM83.1615 30.0129C81.7773 30.0129 80.6187 28.8802 80.6187 27.321C80.6187 25.7473 81.7773 24.5989 83.1615 24.5989C84.5256 24.5989 85.601 25.7473 85.601 27.321C85.601 28.8802 84.5256 30.0129 83.1615 30.0129ZM109.347 18.375H104.544V31.5H106.547V26.5269H109.347C111.572 26.5269 113.754 24.9533 113.754 22.4503C113.754 19.9487 111.567 18.375 109.347 18.375ZM109.4 24.7013H106.547V20.2007H109.4C110.895 20.2007 111.749 21.4148 111.749 22.4503C111.749 23.4662 110.895 24.7013 109.4 24.7013ZM121.783 22.8152C120.335 22.8152 118.83 23.4399 118.211 24.8246L119.989 25.5531C120.371 24.8246 121.075 24.5884 121.819 24.5884C122.858 24.5884 123.912 25.1987 123.928 26.2763V26.4141C123.565 26.2093 122.789 25.9061 121.835 25.9061C119.92 25.9061 117.97 26.9364 117.97 28.8593C117.97 30.618 119.538 31.7507 121.301 31.7507C122.649 31.7507 123.392 31.1561 123.86 30.4644H123.928V31.479H125.863V26.4443C125.863 24.1172 124.085 22.8152 121.783 22.8152ZM121.541 30.0077C120.886 30.0077 119.973 29.6901 119.973 28.896C119.973 27.8801 121.111 27.4903 122.097 27.4903C122.979 27.4903 123.392 27.6806 123.928 27.9313C123.771 29.1467 122.701 30.0077 121.541 30.0077ZM132.911 23.1026L130.609 28.7923H130.54L128.16 23.1026H126L129.576 31.0537L127.536 35.4782H129.629L135.14 23.1026H132.911ZM114.855 31.5H116.863V18.375H114.855V31.5Z" fill="white"/>
<defs>
<linearGradient id="paint0_linear_5_3259" x1="23.4145" y1="32.8549" x2="5.79753" y2="14.834" gradientUnits="userSpaceOnUse">
<stop stop-color="#00A0FF"/>
<stop offset="0.0066" stop-color="#00A1FF"/>
<stop offset="0.2601" stop-color="#00BEFF"/>
<stop offset="0.5122" stop-color="#00D2FF"/>
<stop offset="0.7604" stop-color="#00DFFF"/>
<stop offset="1" stop-color="#00E3FF"/>
</linearGradient>
<linearGradient id="paint1_linear_5_3259" x1="36.3407" y1="20.9986" x2="10.3514" y2="20.9986" gradientUnits="userSpaceOnUse">
<stop stop-color="#FFE000"/>
<stop offset="0.4087" stop-color="#FFBD00"/>
<stop offset="0.7754" stop-color="#FFA500"/>
<stop offset="1" stop-color="#FF9C00"/>
</linearGradient>
<linearGradient id="paint2_linear_5_3259" x1="26.6661" y1="18.5891" x2="2.77601" y2="-5.84869" gradientUnits="userSpaceOnUse">
<stop stop-color="#FF3A44"/>
<stop offset="1" stop-color="#C31162"/>
</linearGradient>
<linearGradient id="paint3_linear_5_3259" x1="7.83789" y1="41.815" x2="18.5059" y2="30.9025" gradientUnits="userSpaceOnUse">
<stop stop-color="#32A071"/>
<stop offset="0.0685" stop-color="#2DA771"/>
<stop offset="0.4762" stop-color="#15CF74"/>
<stop offset="0.8009" stop-color="#06E775"/>
<stop offset="1" stop-color="#00F076"/>
</linearGradient>
</defs>
</svg>
