<svg width="1440" height="346" viewBox="0 0 1440 346" fill="none" xmlns="http://www.w3.org/2000/svg">
<g opacity="0.3" clip-path="url(#clip0_2_2383)">
<path d="M0.596351 144.572L0.544495 143.992L5.12078 143.564C93.1721 135.381 184.218 126.933 261.043 88.4074C267.252 85.2976 273.54 82.0242 279.62 78.8641C303.941 66.2237 329.091 53.1552 356.133 46.3566C403.335 34.5093 453.065 42.4159 495.483 51.7074C523.174 57.7758 551.047 65.1409 577.999 72.2795C614.908 82.0368 653.073 92.134 691.304 99.0208C769.957 113.172 835.075 110.503 890.379 90.8499C906.74 85.0332 922.724 77.5044 938.177 70.2273C958.349 60.7218 979.208 50.9016 1001.1 44.808C1075.05 24.2358 1153.55 46.8098 1221.32 69.5852C1226.17 71.2219 1231.05 72.8587 1235.91 74.508C1302.06 96.9057 1370.46 120.071 1439.91 112.706L1439.97 113.285C1370.38 120.663 1301.92 97.4722 1235.71 75.0493C1230.84 73.4 1225.98 71.7507 1221.13 70.1266C1153.43 47.3764 1075.04 24.8276 1001.27 45.3494C979.429 51.4304 958.583 61.2506 938.437 70.7309C922.971 78.0206 906.96 85.562 890.574 91.3786C835.153 111.069 769.931 113.739 691.175 99.5748C652.918 92.688 614.739 82.5908 577.831 72.8209C550.891 65.6949 523.032 58.3297 495.341 52.2613C452.987 42.9824 403.348 35.0885 356.263 46.9105C329.285 53.684 304.161 66.7399 279.879 79.3677C273.799 82.5278 267.499 85.8012 261.289 88.9236C184.387 127.5 93.2758 135.96 5.17264 144.144L0.596351 144.572Z" fill="url(#paint0_linear_2_2383)"/>
<path d="M0.557471 156.797L0.505615 156.217C90.4367 149.557 184.737 139.787 262.417 100.595C269.223 97.1701 276.094 93.5568 282.744 90.0693C306.598 77.5548 331.269 64.6122 357.495 57.2345C403.711 44.2037 452.858 49.0509 494.835 55.5096C534.855 61.6662 573.306 69.3587 619.406 78.7761C641.86 83.3337 662.109 87.7779 681.296 92.3733C684.096 93.0406 686.883 93.6953 689.658 94.35C698.953 96.5154 706.563 98.2025 713.615 99.6378C748.229 106.701 779.057 109.962 807.837 109.622C834.543 109.37 860.199 105.605 884.079 98.4543C902.319 93.0028 920.287 85.3229 937.672 77.8947C943.389 75.4523 949.287 72.9343 955.147 70.517C966.296 65.909 981.088 60.0672 996.554 55.7488C1005.95 53.1175 1015.78 50.9898 1025.76 49.4034C1052.01 45.2487 1077.51 44.7829 1103.73 47.9808C1135.07 51.7956 1166.1 60.9737 1192.72 69.2831C1200.37 71.6627 1208.53 74.294 1218.39 77.5674L1226.91 80.3876C1245.88 86.6826 1265.5 93.1917 1285.03 98.8824C1365.68 122.413 1410.1 121.973 1439.78 118.976L1439.84 119.555C1383.23 125.284 1327.28 111.825 1284.85 99.4489C1265.31 93.7582 1245.68 87.2366 1226.72 80.9415L1218.2 78.1214C1208.35 74.8605 1200.19 72.2292 1192.54 69.8497C1165.94 61.5529 1134.93 52.3873 1103.65 48.5725C1077.5 45.3872 1052.05 45.853 1025.85 49.9952C1015.9 51.5689 1006.08 53.6967 996.71 56.3154C981.27 60.6338 966.504 66.463 955.367 71.0583C949.521 73.4756 943.622 75.9936 937.905 78.4361C920.507 85.8643 902.513 93.5442 884.247 99.0209C860.303 106.185 834.595 109.949 807.837 110.213C779.006 110.553 748.151 107.28 713.486 100.217C706.42 98.7817 698.797 97.0946 689.502 94.9291C686.715 94.2744 683.928 93.6323 681.14 92.9525C661.954 88.3571 641.717 83.9128 619.263 79.3552C573.163 69.9378 534.725 62.2579 494.718 56.1014C452.806 49.6552 403.75 44.8081 357.637 57.8136C331.463 65.1662 306.831 78.0962 283.004 90.5981C276.353 94.0856 269.469 97.6989 262.663 101.136C184.918 140.354 90.5534 150.136 0.557471 156.797Z" fill="url(#paint1_linear_2_2383)"/>
<path d="M0.531507 169.022L0.492615 168.443C37.8159 166.378 86.8846 162.865 135.435 153.926C185.372 144.723 227.375 131.264 263.817 112.782C271.297 108.992 278.855 104.989 286.154 101.111C309.45 88.76 333.55 75.9937 358.882 68.0997C403.854 54.0115 450.511 55.5349 494.213 59.2993C539.392 63.1896 578.569 67.8479 617.487 73.9667C640.887 77.5926 661.293 81.9488 679.844 87.2996C681.115 87.6647 682.398 88.0298 683.668 88.3949C685.146 88.8104 686.611 89.2384 688.076 89.6539L691.408 90.6234C697.955 92.5245 704.722 94.4885 711.334 96.2889C745.481 105.631 774.351 110.78 802.198 112.505C828.282 114.129 853.73 111.951 877.856 106.059C898.378 101.048 918.822 93.1288 938.579 85.474C942.391 84.001 946.215 82.5154 950.052 81.0423C963.107 76.0567 977.225 70.857 992.069 66.6897C1001.51 64.0332 1011.4 61.7669 1021.48 59.9288C1050.39 54.6787 1075.23 53.3694 1099.62 55.8118C1130.45 58.8964 1161.86 68.6411 1189.56 77.2275C1197.13 79.5819 1205.14 82.1377 1215.53 85.5244L1218.58 86.519C1239.62 93.3806 1261.37 100.481 1283.06 106.449C1325.54 118.145 1381.74 130.836 1439.71 125.221L1439.78 125.8C1430.02 126.744 1420.29 127.172 1410.69 127.172C1363.16 127.172 1318.29 116.735 1282.9 107.003C1261.2 101.035 1239.43 93.9345 1218.39 87.073L1215.35 86.0784C1204.96 82.6916 1196.96 80.1358 1189.39 77.7815C1161.72 69.1951 1130.33 59.463 1099.57 56.391C1075.23 53.9485 1050.46 55.2579 1021.6 60.4953C1011.54 62.3335 1001.66 64.5997 992.25 67.2436C977.445 71.3983 963.327 76.5854 950.299 81.5711C946.461 83.0316 942.637 84.5172 938.826 86.0028C919.042 93.6702 898.585 101.589 878.024 106.613C853.834 112.53 828.321 114.696 802.185 113.084C774.287 111.359 745.377 106.197 711.191 96.8428C704.579 95.0299 697.799 93.0658 691.252 91.1773L687.921 90.2079C686.456 89.7798 684.991 89.3644 683.513 88.9489C682.242 88.5838 680.972 88.2187 679.688 87.8535C661.163 82.5154 640.784 78.1592 617.41 74.5459C578.492 68.4271 539.34 63.7688 494.174 59.8784C450.524 56.1266 403.945 54.5906 359.076 68.6537C333.784 76.5351 309.722 89.2888 286.452 101.614C279.14 105.492 271.582 109.496 264.102 113.285C227.609 131.805 185.553 145.277 135.564 154.48C86.9753 163.432 37.8807 166.944 0.544471 169.009L0.531507 169.022Z" fill="url(#paint2_linear_2_2383)"/>
<path d="M0.492603 181.259L0.466675 180.68C52.3745 178.779 96.7113 174.297 135.992 166.982C185.709 157.716 227.985 143.98 265.217 124.982C273.475 120.777 281.798 116.32 289.862 112.001C312.51 99.877 335.923 87.3373 360.282 79.0027C406.11 63.1896 453.13 62.5097 493.604 63.1266C531.938 63.7058 571.582 64.3101 615.595 69.2076C639.461 71.776 660.009 76.044 678.418 82.2635L680.363 82.9182C682.424 83.6107 684.472 84.3031 686.508 85.0082C690.41 86.3679 694.26 87.7402 698.084 89.0999C701.766 90.4093 705.422 91.7187 709.065 92.9903C742.616 104.674 770.423 111.812 796.572 115.438C821.865 118.951 847.131 118.359 871.646 113.701C894.942 109.282 917.357 101.363 941.094 92.9777L944.983 91.6054C959.205 86.5945 973.154 81.7599 987.596 77.6808C997.073 75.0117 1007.04 72.5944 1017.21 70.5044C1039.83 65.8713 1066.82 61.427 1095.51 63.7058C1124.18 65.9594 1152.63 74.785 1180.14 83.3085C1182.22 83.9506 1184.31 84.6053 1186.4 85.2474C1195.58 88.0801 1204.82 91.0388 1212.66 93.5568C1233.69 100.318 1257.53 107.972 1281.09 114.066C1344.29 130.433 1393.19 135.822 1439.65 131.528L1439.7 132.108C1393.17 136.401 1344.21 131.012 1280.93 114.62C1257.35 108.514 1233.51 100.859 1212.47 94.0982C1204.63 91.5802 1195.37 88.6215 1186.2 85.7887C1184.12 85.1467 1182.03 84.5046 1179.94 83.8499C1152.46 75.3264 1124.05 66.526 1095.44 64.2723C1066.83 62.0061 1039.89 66.4378 1017.31 71.0584C1007.16 73.1483 997.202 75.5656 987.739 78.2347C973.323 82.3013 959.373 87.1359 945.165 92.1467L941.289 93.519C917.539 101.904 895.098 109.836 871.75 114.267C847.17 118.951 821.839 119.53 796.481 116.017C770.294 112.379 742.447 105.24 708.857 93.5442C705.215 92.2726 701.559 90.9759 697.877 89.6539C694.053 88.2942 690.215 86.9219 686.313 85.5621C684.291 84.8571 682.242 84.1646 680.181 83.4722L678.237 82.8175C659.867 76.6106 639.371 72.3552 615.543 69.7868C571.569 64.9018 531.938 64.2975 493.617 63.7184C453.195 63.1015 406.239 63.7813 360.502 79.5567C336.195 87.8913 312.795 100.406 290.173 112.517C282.109 116.836 273.786 121.293 265.528 125.51C228.244 144.534 185.916 158.295 136.135 167.574C96.8279 174.901 52.4652 179.383 0.518531 181.284L0.492603 181.259Z" fill="url(#paint3_linear_2_2383)"/>
<path d="M0.453735 193.484V192.905C110.298 190.928 197.351 172.685 266.604 137.169C275.757 132.472 284.987 127.474 293.919 122.652C315.777 110.818 338.386 98.5801 361.656 89.8803C405.785 73.2363 450.719 69.4215 492.968 66.9286C497.246 66.6768 501.499 66.4125 505.751 66.1607C539.781 64.0833 574.978 61.943 613.663 64.4106C638.087 65.9718 658.791 70.1517 676.94 77.2021L677.433 77.391C679.896 78.3478 682.437 79.3299 684.887 80.3371C690.228 82.5277 695.479 84.7939 700.548 86.9846C702.622 87.8785 704.683 88.7724 706.731 89.6537C730.793 99.9776 759.598 111.46 790.881 118.334C815.37 123.722 840.429 124.717 865.359 121.305C889.809 117.969 913.546 110.654 939.824 102.13L944.983 100.456C957.377 96.4272 970.185 92.2724 983.046 88.6339C992.496 85.9522 1002.53 83.3964 1012.86 81.0295C1039.75 74.8982 1064.21 69.9629 1091.33 71.5366C1118.8 73.1355 1146 81.6212 1172.29 89.83C1175.92 90.9631 1179.55 92.0962 1183.17 93.2041C1192.31 96.0117 1201.57 98.9452 1209.75 101.526C1233.08 108.916 1255.95 116.005 1279.08 121.632C1341.42 136.803 1392.41 141.94 1439.53 137.786L1439.59 138.365C1392.4 142.519 1341.34 137.383 1278.92 122.199C1255.78 116.571 1232.9 109.47 1209.55 102.08C1201.39 99.4991 1192.12 96.5657 1182.99 93.7581C1179.37 92.6501 1175.74 91.517 1172.11 90.3839C1145.85 82.1878 1118.69 73.7147 1091.29 72.1283C1064.25 70.542 1039.84 75.4773 1012.99 81.6087C1002.67 83.9756 992.652 86.5314 983.201 89.2005C970.354 92.839 957.545 97.0063 945.165 101.023L940.005 102.697C913.701 111.22 889.938 118.548 865.436 121.897C840.429 125.321 815.305 124.314 790.738 118.926C759.404 112.039 730.572 100.544 706.485 90.2077C704.424 89.3264 702.362 88.4325 700.288 87.5386C695.219 85.3479 689.969 83.0691 684.641 80.891C682.191 79.8964 679.65 78.9018 677.199 77.945L676.707 77.7561C658.622 70.7308 637.983 66.5509 613.611 65.0024C574.965 62.5347 539.794 64.6876 505.777 66.7524C501.525 67.0042 497.259 67.2686 492.994 67.5204C450.796 70.0006 405.902 73.8154 361.864 90.4343C338.632 99.1214 316.049 111.346 294.205 123.181C285.272 128.016 276.042 133.014 266.889 137.71C197.558 173.277 110.401 191.532 0.453735 193.522V193.484Z" fill="url(#paint4_linear_2_2383)"/>
<path d="M0.700027 205.709H0.401855V205.13H0.700027C106.305 205.13 196.223 186.358 267.978 149.343C278.194 144.081 288.474 138.44 298.431 132.989C319.342 121.532 340.979 109.672 363.004 100.733C408.417 82.1249 454.932 75.8047 492.307 70.7183C498.608 69.8622 504.986 68.9557 511.144 68.0618C542.594 63.5671 575.121 58.8962 611.705 59.6013C636.505 60.0671 657.352 64.1715 675.449 72.1284C677.835 73.1734 680.596 74.3946 683.253 75.6536C689.424 78.5745 695.375 81.6465 701.118 84.6177L704.398 86.3174C733.476 101.337 758.341 113.021 785.176 121.23C808.499 128.368 834.051 131.012 859.071 128.897C884.532 126.757 910.447 119.82 934.664 112.643C940.148 111.019 945.735 109.319 951.141 107.683C960.073 104.976 969.304 102.181 978.495 99.5621C987.92 96.8804 997.747 94.2491 1008.52 91.5422L1012.47 90.5476C1037.36 84.2778 1060.88 78.3479 1087.16 79.3677C1113.9 80.3875 1140.32 88.7095 1165.88 96.7671C1170.49 98.2276 1175.28 99.7258 1179.94 101.161C1187.62 103.503 1195.4 105.933 1202.91 108.287L1206.82 109.508C1229.08 116.458 1252.84 123.697 1277.04 129.212C1339.28 143.413 1390.88 148.122 1439.4 144.055L1439.46 144.635C1390.88 148.714 1339.22 143.992 1276.91 129.778C1252.68 124.264 1228.92 117.012 1206.64 110.075L1202.73 108.854C1195.21 106.512 1187.44 104.082 1179.76 101.74C1175.08 100.318 1170.31 98.8067 1165.68 97.3463C1140.17 89.3012 1113.79 80.9918 1087.13 79.9846C1060.95 78.99 1037.47 84.8821 1012.62 91.152L1008.66 92.1466C997.889 94.866 988.076 97.4848 978.664 100.166C969.485 102.785 960.255 105.58 951.323 108.287C945.917 109.924 940.329 111.623 934.845 113.248C910.603 120.436 884.649 127.374 859.123 129.514C834.025 131.629 808.395 128.972 784.995 121.821C758.108 113.6 733.217 101.904 704.113 86.8713L700.82 85.1717C695.077 82.2004 689.139 79.1285 682.968 76.2076C680.324 74.9611 677.562 73.7399 675.177 72.6823C657.17 64.7632 636.389 60.684 611.679 60.2182C575.121 59.5257 542.646 64.1841 511.222 68.6787C505.064 69.56 498.685 70.4665 492.385 71.3352C455.049 76.4216 408.573 82.7418 363.238 101.312C341.238 110.251 319.627 122.086 298.716 133.543C288.773 138.994 278.479 144.635 268.251 149.897C196.404 186.962 106.369 205.747 0.687063 205.747L0.700027 205.709Z" fill="url(#paint5_linear_2_2383)"/>
<path d="M13.7029 218.06C9.13963 218.06 4.70595 218.022 0.375977 217.934V217.355C71.4575 218.677 175.805 210.052 269.379 161.53C280.865 155.588 292.39 149.18 303.552 142.985C323.322 132.007 343.766 120.65 364.392 111.611C406.563 92.9523 449.409 83.6735 487.212 75.4899L491.685 74.5205C498.789 72.9845 505.971 71.3352 512.907 69.7363C542.931 62.8369 573.98 55.7109 609.787 54.8045C634.613 54.1876 656.211 58.3045 673.984 67.0546C676.279 68.1877 678.975 69.5348 681.646 70.9701C688.335 74.5709 694.649 78.436 700.755 82.1627L702.09 82.981C728.654 99.2096 752.805 113.512 779.511 124.125C802.004 133.052 827.348 137.332 852.823 136.501C880.306 135.62 908.256 128.91 929.543 123.168C939.759 120.411 950.156 117.402 960.216 114.481C964.792 113.159 969.382 111.825 973.971 110.503C984.692 107.443 995.258 104.51 1004.19 102.055C1007.69 101.098 1011.16 100.116 1014.63 99.1467C1037.31 92.7635 1058.76 86.7454 1083.01 87.1861C1109.31 87.6645 1135.23 95.9362 1160.29 103.931C1165.68 105.656 1171.27 107.431 1176.73 109.093C1182.89 110.969 1189.03 112.857 1195.16 114.746C1198.08 115.652 1201 116.546 1203.91 117.44C1230.24 125.535 1252.41 131.919 1275.03 136.728C1336.21 149.771 1389.95 154.19 1439.29 150.262L1439.34 150.841C1389.93 154.782 1336.15 150.35 1274.9 137.295C1252.26 132.473 1230.07 126.089 1203.73 117.994C1200.81 117.1 1197.9 116.194 1194.98 115.3C1188.85 113.411 1182.7 111.51 1176.55 109.647C1171.09 107.985 1165.5 106.21 1160.09 104.485C1135.07 96.5027 1109.2 88.2563 1082.98 87.7778C1058.77 87.312 1037.42 93.3426 1014.78 99.7132C1011.32 100.683 1007.85 101.665 1004.35 102.622C995.413 105.077 984.835 107.997 974.126 111.069C969.524 112.379 964.948 113.713 960.372 115.035C950.312 117.956 939.901 120.965 929.686 123.722C908.36 129.476 880.358 136.187 852.823 137.068C827.271 137.899 801.835 133.606 779.265 124.642C752.507 114.016 728.329 99.7006 701.753 83.4594L700.418 82.6411C694.312 78.9144 688.011 75.0619 681.335 71.4611C678.677 70.0258 675.968 68.6787 673.686 67.5582C656.003 58.8459 634.47 54.7415 609.774 55.371C574.019 56.2649 543.009 63.3909 513.011 70.2776C506.075 71.8766 498.893 73.5259 491.776 75.0619L487.303 76.0313C449.526 84.2023 406.719 93.4685 364.599 112.114C343.999 121.154 323.568 132.498 303.811 143.464C292.649 149.658 281.124 156.066 269.625 162.021C181.625 207.66 84.1233 218.035 13.6641 218.035L13.7029 218.06Z" fill="url(#paint6_linear_2_2383)"/>
<path d="M23.6074 230.587C15.8679 230.587 8.11542 230.448 0.337036 230.159L0.362964 229.58C47.4611 231.305 93.8333 227.792 138.17 219.143C186.344 209.75 230.966 194.466 270.779 173.705C283.794 166.932 296.836 159.579 309.45 152.478C327.807 142.129 346.799 131.428 365.779 122.476C404.165 104.208 442.953 92.6629 477.178 82.4649C481.858 81.0674 486.486 79.6951 491.05 78.3228C498.452 76.0944 505.906 73.7023 513.127 71.3857C542.206 62.069 572.269 52.4377 607.868 50.0078C633.057 48.2829 654.811 52.3118 672.519 61.9935C675.527 63.6302 677.912 65.0025 680.052 66.2993C687.039 70.5547 693.508 75.1753 699.757 79.6322L702.557 81.634C726.229 98.555 748.592 114.544 773.846 127.021C795.522 137.723 820.659 143.64 846.574 144.106C868.872 144.521 893.594 141.21 924.435 133.694C939.266 130.081 954.201 125.838 969.472 121.456C978.482 118.863 989.152 115.791 999.899 112.593C1004.89 111.12 1009.87 109.546 1014.68 108.023C1035.89 101.35 1055.9 95.0298 1078.88 95.0298H1078.98C1104.97 95.0298 1130.54 103.289 1155.25 111.271C1161.26 113.21 1167.47 115.224 1173.55 117.062C1178.5 118.561 1183.46 120.071 1188.41 121.582C1192.62 122.866 1196.83 124.151 1201.03 125.435C1223.84 132.347 1248.34 139.422 1273.06 144.32C1333.9 156.406 1388.25 160.397 1439.22 156.532L1439.27 157.111C1388.25 160.977 1333.84 156.973 1272.95 144.886C1248.2 139.976 1223.68 132.901 1200.87 125.989C1196.67 124.717 1192.45 123.433 1188.24 122.136C1183.29 120.625 1178.33 119.115 1173.38 117.616C1167.3 115.778 1161.08 113.764 1155.08 111.825C1130.41 103.855 1104.89 95.6216 1078.99 95.6216H1078.89C1056.01 95.6216 1036.03 101.917 1014.87 108.589C1010.05 110.113 1005.07 111.674 1000.08 113.16C989.32 116.357 978.664 119.442 969.641 122.023C954.356 126.417 939.422 130.647 924.578 134.26C893.685 141.789 868.885 145.1 846.561 144.685C820.568 144.219 795.327 138.289 773.574 127.537C748.268 115.035 725.892 99.0335 702.194 82.0998L699.42 80.1232C693.145 75.6411 686.689 71.0332 679.714 66.7903C677.588 65.4935 675.216 64.1338 672.208 62.4971C654.603 52.8783 632.966 48.8747 607.881 50.5869C572.36 53.0168 542.335 62.6356 513.296 71.9397C506.075 74.2562 498.608 76.6483 491.205 78.8768C486.642 80.2491 482.014 81.634 477.334 83.0315C443.135 93.2169 404.359 104.762 366.025 123.005C347.072 131.944 328.092 142.645 309.735 152.982C297.121 160.095 284.08 167.448 271.051 174.221C231.187 194.995 186.513 210.304 138.287 219.709C101.223 226.936 62.7456 230.587 23.6074 230.587Z" fill="url(#paint7_linear_2_2383)"/>
<path d="M30.8413 243.215C20.6775 243.215 10.4878 242.938 0.298157 242.384L0.337049 241.805C96.7891 247.08 193.319 227.213 272.166 185.892C287.087 178.086 301.983 169.55 316.386 161.291C332.98 151.773 350.144 141.94 367.153 133.354C401.118 116.043 433.917 103.616 465.627 91.6052C474.235 88.3444 482.377 85.2598 490.414 82.1249C497.843 79.2292 505.336 76.1195 512.583 73.1104C540.948 61.3387 570.285 49.1641 605.936 45.2109C631.488 42.3781 653.398 46.3188 671.055 56.9196C673.919 58.6444 676.279 60.1427 678.444 61.6157C685.082 66.1355 690.993 70.9575 697.488 76.3209C700.353 78.6878 703.192 81.0548 706.018 83.4091C726.527 100.481 745.909 116.609 768.194 129.929C789.04 142.381 813.982 149.922 840.338 151.723C863.245 153.309 889.083 150.854 919.328 144.232C932.706 141.298 946.785 137.66 964.961 132.422C975.993 129.237 986.014 126.203 995.595 123.131C1001.66 121.192 1007.68 119.089 1013.49 117.05C1033.63 109.987 1052.65 103.301 1074.74 102.886C1100.62 102.357 1126 110.692 1150.55 118.724C1157.06 120.852 1163.79 123.055 1170.35 125.032C1174.21 126.19 1178.09 127.361 1181.95 128.532C1187.34 130.169 1192.74 131.793 1198.13 133.404C1221 140.241 1245.67 147.216 1271.05 151.886C1331.39 163.016 1386.35 166.579 1439.11 162.789L1439.14 163.369C1386.33 167.158 1331.31 163.595 1270.94 152.453C1245.51 147.769 1220.84 140.795 1197.95 133.958C1192.56 132.347 1187.16 130.71 1181.77 129.073C1177.91 127.902 1174.03 126.731 1170.17 125.573C1163.59 123.597 1156.87 121.393 1150.36 119.266C1125.86 111.246 1100.54 102.974 1074.75 103.452C1052.75 103.868 1033.77 110.528 1013.68 117.579C1007.86 119.618 1001.84 121.733 995.776 123.672C986.196 126.744 976.175 129.778 965.129 132.964C946.928 138.214 932.849 141.852 919.457 144.786C889.16 151.421 863.258 153.876 840.299 152.289C813.853 150.489 788.819 142.922 767.895 130.42C745.558 117.075 726.177 100.934 705.642 83.8497C702.816 81.4954 699.977 79.1411 697.112 76.7615C690.63 71.3982 684.719 66.5888 678.12 62.0815C675.955 60.6085 673.621 59.1229 670.756 57.398C653.216 46.8602 631.449 42.9572 606.027 45.7648C570.454 49.7055 541.168 61.8675 512.842 73.614C505.595 76.6231 498.102 79.7328 490.661 82.6285C482.61 85.7634 474.482 88.848 465.861 92.1088C434.164 104.107 401.391 116.521 367.451 133.82C350.455 142.406 333.304 152.239 316.71 161.744C302.307 170.004 287.398 178.54 272.477 186.358C201.862 223.36 117.078 243.164 30.8672 243.164L30.8413 243.215Z" fill="url(#paint8_linear_2_2383)"/>
<path d="M37.1029 255.931C24.8001 255.931 12.5232 255.49 0.259277 254.609L0.298169 254.03C94.9741 260.866 192.022 241.011 273.553 198.079C290.886 188.964 308.115 178.892 324.787 169.147C339.112 160.762 353.943 152.1 368.514 144.232C397.203 128.633 424.946 115.929 451.769 103.641C465.07 97.5478 477.645 91.7941 489.753 85.9397C497.065 82.4019 504.441 78.6249 511.559 74.9612C539.353 60.6841 568.095 45.9033 603.979 40.4392C629.894 36.486 651.958 40.3385 669.551 51.8836C672.273 53.6714 674.645 55.3333 676.797 56.97C683.448 62.0186 689.269 67.4449 695.129 73.0223C699.277 76.9756 703.413 80.9667 707.405 84.8192C725.451 102.244 742.486 118.712 762.476 132.85C782.506 147.027 807.254 156.192 834.038 159.34C857.749 162.147 883.949 160.649 914.155 154.757C928.312 152 943.428 148.273 960.398 143.363C971.106 140.266 981.49 136.992 991.239 133.656C998.11 131.314 1004.89 128.683 1011.45 126.127C1030.8 118.611 1049.08 111.51 1070.57 110.717C1096.4 109.735 1121.63 118.12 1146.05 126.215C1152.98 128.507 1160.13 130.886 1167.12 132.976C1169.9 133.807 1172.67 134.638 1175.44 135.469C1181.93 137.42 1188.62 139.435 1195.21 141.374C1217.08 147.82 1242.96 155.009 1269.03 159.44C1327.84 169.475 1385.02 172.698 1438.99 169.034L1439.03 169.613C1385.01 173.29 1327.78 170.054 1268.93 160.007C1242.82 155.563 1216.93 148.374 1195.03 141.915C1188.43 139.976 1181.74 137.962 1175.26 136.01C1172.49 135.179 1169.71 134.348 1166.94 133.518C1159.94 131.428 1152.78 129.048 1145.86 126.744C1121.49 118.661 1096.3 110.289 1070.59 111.271C1049.21 112.064 1030.97 119.14 1011.67 126.643C1005.11 129.187 998.33 131.83 991.446 134.172C981.684 137.509 971.3 140.782 960.579 143.879C943.596 148.802 928.454 152.529 914.285 155.286C884.014 161.19 857.749 162.689 833.973 159.869C807.098 156.708 782.259 147.505 762.139 133.266C742.11 119.089 725.062 102.622 707.004 85.1717C703.011 81.3192 698.875 77.3281 694.727 73.3748C688.867 67.81 683.072 62.3963 676.435 57.3603C674.295 55.7362 671.936 54.0743 669.227 52.2991C651.764 40.8421 629.855 37.0147 604.083 40.9554C568.289 46.4195 539.6 61.1625 511.844 75.427C504.714 79.0907 497.35 82.8803 490.025 86.4181C477.904 92.2725 465.329 98.0262 452.028 104.12C425.206 116.395 397.476 129.098 368.799 144.685C354.228 152.541 339.41 161.203 325.085 169.588C308.413 179.333 291.171 189.417 273.825 198.545C202.757 235.963 119.891 255.893 37.0899 255.893L37.1029 255.931Z" fill="url(#paint9_linear_2_2383)"/>
<path d="M42.2756 268.71C28.1967 268.71 14.1567 268.093 0.220398 266.834L0.272254 266.255C93.3277 274.627 190.869 254.735 274.94 210.267C295.449 199.427 315.725 187.277 335.326 175.531C346.67 168.732 358.402 161.694 369.888 155.11C391.966 142.331 413.486 130.874 434.293 119.782C453.7 109.445 472.031 99.6882 489.118 89.7546C496.235 85.6251 503.391 81.206 510.314 76.9254C537.603 60.0799 565.813 42.6552 602.06 35.6426C627.975 30.6317 650.805 34.4843 668.086 46.8099C670.717 48.6859 673.038 50.4736 675.19 52.2866C681.815 57.864 687.532 63.945 692.821 69.6987C697.773 75.0746 702.648 80.5387 707.367 85.8139C723.442 103.78 738.636 120.764 756.811 135.771C776.05 151.647 800.591 162.437 827.789 166.969C851.85 170.986 879.178 170.432 909.047 165.308C923.956 162.752 939.279 159.164 955.899 154.342C966.581 151.232 977.017 147.833 986.935 144.219C994.454 141.487 1001.82 138.34 1008.93 135.305C1027.68 127.311 1045.38 119.757 1066.43 118.598C1092.24 117.163 1117.43 125.636 1141.79 133.82C1149.06 136.262 1156.59 138.793 1163.93 140.984L1169.66 142.696C1177.09 144.912 1184.77 147.203 1192.32 149.406C1214.3 155.789 1240.35 162.89 1267.05 167.07C1324.96 176.173 1382.78 178.955 1438.9 175.354L1438.94 175.934C1382.76 179.547 1324.89 176.752 1266.94 167.649C1240.23 163.457 1214.14 156.356 1192.15 149.96C1184.6 147.757 1176.92 145.466 1169.49 143.25L1163.76 141.538C1156.41 139.347 1148.88 136.816 1141.6 134.361C1117.29 126.19 1092.15 117.717 1066.47 119.165C1045.53 120.311 1027.88 127.852 1009.18 135.822C1002.05 138.868 994.674 142.016 987.142 144.748C977.212 148.361 966.763 151.773 956.068 154.883C939.435 159.718 924.085 163.318 909.151 165.874C879.217 170.998 851.811 171.565 827.698 167.536C800.396 162.991 775.752 152.164 756.435 136.212C738.221 121.167 723.027 104.183 706.926 86.1916C702.207 80.9164 697.333 75.4649 692.393 70.089C687.117 64.3479 681.413 58.2795 674.814 52.7399C672.675 50.9395 670.367 49.1643 667.749 47.2884C650.61 35.0634 627.949 31.236 602.19 36.2217C566.059 43.2092 537.888 60.6086 510.651 77.429C503.728 81.7096 496.559 86.1287 489.442 90.2582C472.343 100.192 454.012 109.962 434.591 120.298C413.784 131.377 392.277 142.834 370.199 155.613C358.713 162.21 346.981 169.236 335.637 176.034C316.023 187.781 295.747 199.943 275.225 210.783C203.651 248.654 122.302 268.722 42.2626 268.722L42.2756 268.71Z" fill="url(#paint10_linear_2_2383)"/>
<path d="M46.6185 281.526C31.0098 281.526 15.5179 280.708 0.194458 279.059L0.259278 278.479C91.8109 288.312 189.857 268.42 276.34 222.441C301.218 209.234 325.577 194.164 349.133 179.597C356.406 175.102 363.925 170.444 371.275 165.962C384.615 157.779 397.813 149.872 410.569 142.23C438.52 125.485 464.927 109.672 488.496 93.5567C495.354 88.8732 502.251 83.8623 508.914 79.0277C535.737 59.5509 563.466 39.4194 600.129 30.8456C626.42 24.7016 649.405 28.4661 666.608 41.7486C669.162 43.7126 671.43 45.6389 673.582 47.6155C680.129 53.684 685.756 60.4826 690.5 66.3747C695.893 73.0601 701.17 79.8713 706.265 86.4433C720.732 105.114 734.396 122.74 751.12 138.667C769.568 156.23 793.914 168.644 821.514 174.561C846.159 179.862 873.876 180.277 903.901 175.82C919.185 173.554 935.144 170.004 951.349 165.27C962.083 162.135 972.584 158.597 982.592 154.719C990.617 151.622 998.447 147.983 1006 144.458C1024.26 135.947 1041.5 127.915 1062.26 126.417C1088.11 124.528 1113.27 133.102 1137.6 141.399C1145.19 143.98 1153.04 146.662 1160.69 148.928L1163.4 149.734C1171.9 152.264 1180.71 154.87 1189.39 157.363C1211.5 163.708 1237.77 170.709 1265.01 174.624C1321.74 182.782 1380.2 185.137 1438.77 181.586L1438.81 182.166C1380.21 185.716 1321.7 183.362 1264.93 175.191C1237.66 171.275 1211.37 164.262 1189.24 157.917C1180.55 155.424 1171.76 152.818 1163.24 150.287L1160.54 149.482C1152.86 147.203 1145.02 144.534 1137.42 141.94C1113.14 133.669 1088.04 125.12 1062.31 126.996C1041.68 128.494 1024.48 136.501 1006.28 144.987C998.706 148.512 990.876 152.163 982.825 155.273C972.804 159.151 962.277 162.701 951.53 165.836C935.299 170.57 919.302 174.133 903.991 176.399C873.902 180.881 846.107 180.453 821.385 175.14C793.668 169.198 769.231 156.734 750.705 139.095C733.943 123.131 720.266 105.479 705.785 86.7958C700.69 80.2238 695.414 73.4252 690.021 66.7398C685.276 60.8603 679.676 54.0868 673.155 48.0436C671.029 46.0796 668.76 44.1659 666.232 42.2144C654.344 33.0363 633.239 23.7196 600.271 31.4247C563.726 39.9734 536.048 60.0671 509.264 79.5062C502.588 84.3533 495.691 89.3516 488.833 94.0477C465.238 110.176 438.831 126.001 410.88 142.746C398.124 150.388 384.927 158.295 371.587 166.478C364.236 170.96 356.717 175.606 349.444 180.101C325.876 194.68 301.503 209.75 276.612 222.97C204.494 261.307 124.338 281.539 46.6055 281.539L46.6185 281.526Z" fill="url(#paint11_linear_2_2383)"/>
<path d="M50.3132 294.368C33.3822 294.368 16.6328 293.348 0.142578 291.296L0.220362 290.717C90.3848 301.973 188.937 282.055 277.727 234.641C308.983 217.959 339.177 198.47 368.359 179.622L374.62 175.581C415.949 148.764 454.997 123.42 487.86 97.3841C494.459 92.1592 501.084 86.5944 507.488 81.2059C533.844 59.0599 561.081 36.146 598.197 26.074C616.748 20.9624 643.428 18.671 665.13 36.7C667.567 38.727 669.862 40.8295 671.962 42.9573C677.77 48.862 682.644 55.2577 688.18 63.0636C693.78 70.9576 699.186 79.0026 704.424 86.7832C717.53 106.273 729.898 124.679 745.442 141.588C763.112 160.825 787.251 174.863 815.253 182.191C840.429 188.788 868.535 190.198 898.767 186.358C914.518 184.356 930.684 180.957 946.824 176.223C957.597 173.063 968.176 169.374 978.275 165.257C986.727 161.82 994.921 157.678 1002.83 153.674C1019.9 145.037 1037.57 136.099 1058.09 134.26C1084.01 131.931 1109.19 140.618 1133.54 149.029C1141.41 151.748 1149.55 154.556 1157.49 156.897L1157.98 157.048C1167.32 159.806 1176.96 162.651 1186.49 165.345C1207.45 171.275 1235.08 178.552 1263 182.203C1318.24 189.443 1377.33 191.344 1438.65 187.856L1438.69 188.435C1377.33 191.923 1318.19 190.022 1262.92 182.77C1234.96 179.119 1207.3 171.829 1186.32 165.899C1176.79 163.205 1167.13 160.347 1157.81 157.602L1157.32 157.451C1149.37 155.097 1141.22 152.289 1133.35 149.57C1109.07 141.185 1083.94 132.523 1058.16 134.84C1037.74 136.665 1020.91 145.176 1003.1 154.19C995.167 158.207 986.974 162.349 978.495 165.798C968.383 169.928 957.779 173.617 946.993 176.79C930.827 181.523 914.622 184.935 898.845 186.937C868.522 190.777 840.351 189.367 815.097 182.745C786.991 175.379 762.749 161.279 744.988 141.965C729.418 125.019 717.025 106.6 703.918 87.0854C698.681 79.3048 693.275 71.2597 687.687 63.3657C682.165 55.5851 677.303 49.2019 671.534 43.335C669.46 41.2198 667.178 39.1299 664.754 37.1155C643.247 19.2502 616.787 21.5416 598.378 26.6028C561.392 36.6496 534.194 59.5006 507.89 81.6087C501.473 86.9973 494.848 92.5747 488.249 97.7996C455.36 123.848 416.299 149.192 374.957 176.022L368.696 180.076C339.488 198.935 309.295 218.425 278.013 235.119C205.349 273.934 126.127 294.343 50.3132 294.343V294.368Z" fill="url(#paint12_linear_2_2383)"/>
<path d="M53.5153 307.223C35.4176 307.223 17.5662 306.001 0.116699 303.521L0.207447 302.942C89.0885 315.57 188.146 295.64 279.127 246.828C313.145 228.585 346.19 206.716 374.037 187.73C424.233 153.359 459.145 126.669 487.251 101.199C493.526 95.5207 499.826 89.4649 505.919 83.6105C531.847 58.72 558.657 32.9733 596.304 21.2771C630.399 10.5756 651.764 21.0002 663.691 31.6262C666.05 33.7287 668.306 35.9697 670.38 38.2737C676.422 44.9842 681.4 52.5509 685.898 59.7272C691.512 68.7165 696.892 77.9198 702.077 86.821C713.991 107.242 725.257 126.53 739.802 144.496C756.72 165.383 780.665 181.045 809.043 189.808C834.336 197.613 863.608 200.069 893.685 196.896C909.864 195.196 926.237 191.923 942.352 187.189C953.19 184.004 963.833 180.176 974.01 175.808C982.812 172.031 991.304 167.397 999.51 162.915C1016.29 153.762 1033.62 144.282 1054.01 142.117C1080.04 139.347 1105.24 148.16 1129.64 156.683C1137.76 159.529 1146.16 162.462 1154.35 164.867C1164.76 167.926 1174.13 170.671 1183.65 173.327C1204.76 179.219 1232.64 186.408 1261.07 189.77C1315.14 196.178 1373.22 197.601 1438.63 194.113L1438.66 194.693C1373.22 198.18 1315.12 196.757 1261.01 190.349C1232.54 186.988 1204.63 179.786 1183.49 173.881C1173.98 171.225 1164.59 168.48 1154.18 165.421C1145.98 163.003 1137.58 160.07 1129.45 157.225C1105.13 148.714 1079.98 139.926 1054.09 142.683C1033.81 144.836 1016.53 154.279 999.808 163.406C991.589 167.888 983.097 172.534 974.256 176.324C964.066 180.705 953.397 184.545 942.533 187.73C926.38 192.477 909.968 195.75 893.763 197.462C863.595 200.648 834.245 198.18 808.862 190.349C780.367 181.561 756.331 165.824 739.336 144.849C724.764 126.857 712.967 106.638 701.559 87.098C696.373 78.1968 690.993 69.0061 685.38 60.0294C680.907 52.8782 675.942 45.3367 669.927 38.664C667.865 36.3726 665.636 34.1568 663.289 32.0668C651.492 21.5415 630.322 11.2177 596.499 21.8437C558.994 33.5021 532.236 59.1858 506.36 84.0386C500.267 89.893 493.954 95.9488 487.679 101.639C459.56 127.134 424.622 153.838 374.4 188.221C346.54 207.22 313.482 229.101 279.439 247.344C206.205 286.638 127.734 307.235 53.5413 307.235L53.5153 307.223Z" fill="url(#paint13_linear_2_2383)"/>
<path d="M56.3025 320.09C37.1547 320.09 18.357 318.654 0.0777588 315.746L0.168507 315.167C87.8439 329.117 187.407 309.174 280.515 259.003C309.735 243.265 340.771 223.511 375.411 198.596C420.798 165.861 457.175 135.242 486.616 105.001C492.54 98.9074 498.517 92.4361 504.286 86.1663C529.799 58.4681 556.181 29.8258 594.373 16.4803C607 12.036 618.978 10.4119 629.972 11.6205C642.404 12.9928 653.255 18.0163 662.213 26.5649C664.508 28.7556 666.712 31.1225 668.76 33.6028C674.684 40.7791 679.377 48.799 683.565 56.4034C689.074 66.4125 694.286 76.6985 699.316 86.6447C709.674 107.154 720.395 128.356 734.111 147.392C750.213 169.89 773.95 187.189 802.768 197.399C828.489 206.527 858.151 209.977 888.551 207.409C905.106 205.998 921.687 202.876 937.814 198.117C948.717 194.894 959.438 190.928 969.667 186.308C978.78 182.203 987.505 177.079 995.945 172.131C1012.46 162.437 1029.53 152.428 1049.84 149.935C1075.97 146.712 1101.26 155.676 1125.7 164.325C1134.05 167.284 1142.68 170.343 1151.1 172.798C1160.61 175.581 1170.74 178.527 1180.71 181.272C1201.97 187.126 1230.1 194.252 1259.02 197.311C1311.35 202.864 1368.37 203.833 1438.47 200.346L1438.5 200.925C1368.36 204.412 1311.31 203.455 1258.95 197.89C1229.97 194.818 1201.83 187.693 1180.54 181.826C1170.57 179.081 1160.44 176.135 1150.93 173.352C1142.49 170.885 1133.86 167.825 1125.49 164.867C1101.11 156.23 1075.91 147.304 1049.9 150.501C1029.73 152.982 1012.71 162.966 996.243 172.622C987.79 177.583 979.04 182.719 969.9 186.824C959.646 191.457 948.899 195.435 937.957 198.658C921.791 203.43 905.171 206.565 888.564 207.975C858.086 210.556 828.333 207.094 802.522 197.941C773.587 187.68 749.746 170.318 733.58 147.719C719.838 128.645 709.117 107.418 698.733 86.8839C693.703 76.9378 688.504 66.6517 682.994 56.6552C678.82 49.076 674.14 41.0813 668.254 33.9427C666.219 31.4751 664.041 29.1333 661.759 26.9552C650.027 15.7627 628.831 4.9478 594.541 17.0091C556.492 30.3042 530.162 58.8962 504.701 86.5314C498.932 92.8012 492.955 99.2851 487.018 105.379C457.551 135.645 421.148 166.289 375.735 199.036C341.069 223.964 310.008 243.731 280.774 259.481C206.97 299.253 129.082 320.052 56.2766 320.052L56.3025 320.09Z" fill="url(#paint14_linear_2_2383)"/>
<path d="M59.4528 333.057C39.1512 333.057 19.3163 331.358 0.0388794 327.971L0.142591 327.392C44.985 335.286 92.8999 333.977 142.539 323.489C189.067 313.656 235.957 296.055 281.902 271.19C312.976 254.382 344.894 233.609 376.785 209.473C419.385 177.18 456.125 143.313 485.994 108.816C491.581 102.357 497.207 95.5083 502.639 88.8859C527.725 58.3298 553.666 26.7162 592.441 11.6962C619.847 1.04506 644.089 4.5325 660.722 21.5039C662.926 23.7323 665.078 26.2378 667.126 28.932C672.908 36.5616 677.316 45.0473 681.218 53.0798C686.533 64.0205 691.473 75.3138 696.256 86.242C705.694 107.796 715.456 130.093 728.394 150.313C743.795 174.461 767.338 193.383 796.468 205.029C822.59 215.466 852.641 219.936 883.391 217.947C900.309 216.851 917.085 213.867 933.264 209.083C944.244 205.835 955.03 201.718 965.324 196.858C974.697 192.439 983.629 186.837 992.263 181.41C1008.56 171.187 1025.41 160.611 1045.66 157.791C1071.94 154.14 1097.31 163.23 1121.84 172.031C1130.39 175.103 1139.25 178.275 1147.88 180.793C1158.99 184.029 1168.34 186.711 1177.79 189.279C1199.23 195.108 1227.61 202.146 1257 204.916C1320.48 210.896 1384.29 209.134 1438.35 206.628L1438.38 207.207C1384.31 209.713 1320.47 211.463 1256.95 205.482C1227.51 202.713 1199.09 195.662 1177.63 189.833C1168.18 187.265 1158.84 184.583 1147.71 181.335C1139.07 178.817 1130.2 175.631 1121.63 172.559C1097.17 163.797 1071.89 154.732 1045.75 158.358C1025.62 161.153 1008.83 171.691 992.587 181.889C983.94 187.315 974.995 192.93 965.583 197.374C955.264 202.247 944.439 206.376 933.432 209.637C917.214 214.434 900.387 217.43 883.43 218.526C852.602 220.515 822.448 216.045 796.248 205.571C766.988 193.874 743.354 174.876 727.888 150.615C714.924 130.358 705.15 108.048 695.712 86.4686C690.928 75.553 685.989 64.2597 680.674 53.3316C676.784 45.3243 672.39 36.8764 666.634 29.2846C664.598 26.6029 662.472 24.1226 660.281 21.9068C643.83 5.11164 619.808 1.68715 592.648 12.2376C554.029 27.2072 528.14 58.7453 503.093 89.251C497.648 95.8734 492.022 102.735 486.434 109.194C456.539 143.716 419.774 177.621 377.135 209.939C345.231 234.1 313.275 254.873 282.174 271.706C236.178 296.597 189.235 314.21 142.643 324.056C114.252 330.048 86.4308 333.057 59.4269 333.057H59.4528Z" fill="url(#paint15_linear_2_2383)"/>
<path d="M62.0975 346C40.8495 346 20.1071 344.074 0 340.196L0.116676 339.629C82.1268 355.455 174.858 338.723 268.315 291.258C310.332 269.918 350.844 243.177 388.712 211.79C425.478 181.322 457.991 147.958 485.358 112.631C490.609 105.857 495.885 98.6934 500.993 91.7563C525.651 58.2667 551.151 23.6441 590.509 6.9119C618.252 -4.88499 642.663 -1.48567 659.244 16.4552C667.593 25.4948 673.142 36.3097 678.898 49.7685C683.954 61.5905 688.582 73.8281 693.041 85.6627C701.611 108.337 710.465 131.793 722.703 153.234C750.938 202.712 810.547 231.581 878.258 228.497C907.453 227.175 935.299 220.074 961.007 207.409C970.6 202.675 979.701 196.594 988.503 190.702C1004.62 179.924 1021.26 168.782 1041.53 165.647C1067.96 161.568 1093.42 170.797 1118.04 179.736C1126.8 182.908 1135.85 186.194 1144.68 188.763C1181.85 199.54 1218.25 209.473 1255 212.495C1316 217.518 1376.49 215.554 1438.25 212.898L1438.28 213.477C1376.49 216.133 1315.99 218.098 1254.95 213.074C1218.15 210.04 1181.71 200.106 1144.51 189.317C1135.66 186.748 1126.6 183.462 1117.83 180.277C1093.29 171.376 1067.91 162.16 1041.62 166.214C1021.5 169.324 1004.9 180.428 988.853 191.167C980.038 197.06 970.924 203.166 961.292 207.912C935.507 220.628 907.582 227.742 878.297 229.063C810.378 232.11 750.537 203.178 722.184 153.498C709.92 132.007 701.053 108.539 692.484 85.839C688.011 74.0043 683.396 61.7794 678.34 49.9699C672.61 36.5615 667.088 25.797 658.791 16.8203C636.661 -7.11343 606.662 0.667229 590.743 7.42809C551.54 24.0973 526.091 58.657 501.473 92.0711C496.365 99.0082 491.076 106.185 485.825 112.958C458.419 148.323 425.88 181.712 389.088 212.205C351.181 243.618 310.63 270.384 268.575 291.737C197.908 327.631 127.63 345.962 62.0845 345.962L62.0975 346Z" fill="url(#paint16_linear_2_2383)"/>
<path d="M56.6656 341.103C37.1937 341.103 18.2922 339.529 0.0259399 336.381L0.129652 335.802C60.0881 346.151 159.211 344.25 290.938 276.377C330.543 256.069 368.151 231.846 402.7 204.387C433.684 179.685 461.764 152.73 486.162 124.289C491.905 117.591 497.687 110.465 503.275 103.566C528.503 72.4685 554.586 40.3135 593.297 24.2485C620.573 12.9175 644.867 15.6244 661.707 31.8655C671.132 40.9681 677.498 52.2111 682.476 62.0061C688.154 73.1735 693.34 84.7438 698.357 95.9238C707.367 116.017 716.688 136.804 729.081 155.752C744.068 178.779 767.092 197.009 795.664 208.454C822.189 219.08 852.771 223.751 884.104 221.95C890.146 221.61 896.226 221.019 902.176 220.213C924.539 217.191 946.176 210.934 966.465 201.617C975.838 197.311 984.77 191.847 993.391 186.56C1009.75 176.538 1026.67 166.189 1046.85 163.772C1053.49 162.978 1060.21 162.978 1067.36 163.772C1086.03 165.836 1104.34 172.912 1122.03 179.761C1130.6 183.072 1139.46 186.497 1148.09 189.229C1182.83 200.22 1216.93 210.443 1252.01 214.698C1253.51 214.887 1255.03 215.051 1256.55 215.215C1308.52 220.641 1364.55 221.296 1438.22 217.317L1438.26 217.896C1364.56 221.875 1308.51 221.22 1256.49 215.794C1254.98 215.63 1253.46 215.466 1251.96 215.278C1216.83 211.009 1182.69 200.786 1147.92 189.783C1139.26 187.038 1130.39 183.614 1121.83 180.302C1104.16 173.479 1085.9 166.415 1067.31 164.351C1060.19 163.558 1053.53 163.558 1046.95 164.351C1026.89 166.755 1010.02 177.079 993.728 187.063C985.081 192.364 976.136 197.84 966.737 202.146C946.383 211.488 924.695 217.77 902.267 220.792C896.291 221.598 890.198 222.189 884.143 222.529C852.732 224.33 822.046 219.646 795.444 208.982C766.755 197.488 743.627 179.182 728.576 156.054C716.156 137.068 706.835 116.269 697.812 96.1504C692.795 84.9704 687.609 73.4001 681.944 62.2453C676.992 52.488 670.653 41.2955 661.293 32.2558C644.634 16.1909 620.573 13.5344 593.543 24.7521C554.975 40.7667 528.943 72.8588 503.754 103.893C498.154 110.793 492.372 117.931 486.629 124.629C462.205 153.108 434.099 180.076 403.089 204.803C368.501 232.287 330.867 256.523 291.223 276.855C242.31 302.061 193.889 320.128 147.323 330.565C116.054 337.565 85.7308 341.077 56.6656 341.077V341.103Z" fill="url(#paint17_linear_2_2383)"/>
<path d="M50.8188 336.28C33.3433 336.28 16.4253 335.034 0.0777588 332.554L0.168507 331.975C82.9306 344.577 180.329 325.176 289.667 274.312C329.881 255.792 367.633 234.024 401.896 209.624C433.088 187.239 461.712 162.449 486.979 135.922C493.279 129.287 499.658 122.186 505.816 115.312C531.536 86.6196 558.125 56.9448 596.11 41.5597C622.932 30.6819 647.11 32.7089 664.197 47.263C672.092 53.9861 678.846 62.3082 686.093 74.2309C692.419 84.6429 698.214 95.4452 703.815 105.882C713.252 123.483 723.014 141.688 735.485 158.257C751.003 178.854 774.131 194.932 802.38 204.739C828.671 213.867 858.954 217.556 889.977 215.403C895.954 214.988 901.982 214.358 907.906 213.54C930.036 210.455 951.582 204.5 971.961 195.838C981.049 191.973 989.761 187.126 998.175 182.443C1015.61 172.748 1032.08 163.583 1052.26 161.896C1058.73 161.367 1065.51 161.606 1072.42 162.601C1090.76 165.257 1108.73 172.66 1126.12 179.811C1134.48 183.248 1143.14 186.811 1151.58 189.72C1185.49 201.378 1218.82 212.256 1253.69 217.342C1255.19 217.556 1256.68 217.758 1258.17 217.959C1311.76 224.77 1372.35 226.054 1438.26 221.749L1438.3 222.328C1372.34 226.634 1311.71 225.349 1258.09 218.538C1256.6 218.349 1255.11 218.135 1253.62 217.921C1218.69 212.835 1185.34 201.932 1151.4 190.274C1142.93 187.353 1134.27 183.79 1125.9 180.353C1108.55 173.214 1090.61 165.836 1072.34 163.192C1065.47 162.198 1058.74 161.958 1052.31 162.487C1032.26 164.174 1015.84 173.302 998.473 182.959C990.046 187.655 981.321 192.502 972.208 196.38C951.789 205.067 930.179 211.035 907.997 214.132C902.06 214.963 896.005 215.592 890.029 216.008C858.928 218.173 828.554 214.472 802.185 205.319C773.833 195.473 750.601 179.32 735.019 158.635C722.508 142.028 712.747 123.811 703.296 106.185C697.695 95.7473 691.914 84.9451 685.6 74.5583C678.392 62.6859 671.677 54.4142 663.834 47.7289C646.929 33.3258 622.971 31.3366 596.369 42.1263C558.514 57.461 531.977 87.0854 506.295 115.728C500.137 122.602 493.759 129.715 487.446 136.35C462.153 162.903 433.49 187.718 402.272 210.115C367.983 234.54 330.193 256.334 289.939 274.866C202.095 315.733 121.913 336.306 50.8317 336.306L50.8188 336.28Z" fill="url(#paint18_linear_2_2383)"/>
<path d="M45.0239 331.61C29.6098 331.61 14.6752 330.653 0.116699 328.726L0.194483 328.147C44.3628 333.964 91.9795 330.967 145.767 319.007C188.315 309.539 234.959 294.255 288.371 272.26C331.139 254.659 367.996 235.887 401.067 214.862C432.089 195.146 461.258 172.509 487.783 147.568C494.757 140.996 501.486 134.21 508.616 127.034C534.725 100.746 561.729 73.5512 598.897 58.8837C632.681 45.5131 654.396 53.5707 666.66 62.6733C675.008 68.8677 682.32 76.4343 689.671 86.4686C696.658 96.0118 703.062 105.933 709.259 115.526C719.086 130.76 729.263 146.498 741.851 160.788C758.095 179.22 780.691 192.766 809.017 201.063C835.062 208.693 865.073 211.387 895.798 208.882C901.723 208.403 907.699 207.723 913.585 206.88C935.468 203.732 956.936 198.079 977.393 190.072C986.144 186.648 994.558 182.43 1002.69 178.351C1020.51 169.424 1037.34 160.977 1057.58 160.032C1063.97 159.755 1070.63 160.221 1077.38 161.442C1095.4 164.703 1113.05 172.408 1130.11 179.862C1138.28 183.437 1146.73 187.126 1154.99 190.211C1186.75 202.033 1220.66 214.069 1255.29 219.986C1256.75 220.238 1258.22 220.465 1259.7 220.691C1314.88 229.013 1376.62 230.902 1438.22 226.18L1438.28 226.76C1376.63 231.493 1314.85 229.592 1259.61 221.27C1258.13 221.044 1256.66 220.804 1255.19 220.553C1220.49 214.623 1186.55 202.587 1154.77 190.752C1146.5 187.655 1138.04 183.966 1129.86 180.39C1112.83 172.95 1095.22 165.245 1077.27 162.009C1070.55 160.8 1063.93 160.322 1057.59 160.599C1037.48 161.543 1020.71 169.953 1002.95 178.854C994.791 182.934 986.377 187.164 977.601 190.601C957.105 198.633 935.584 204.299 913.662 207.446C907.764 208.303 901.761 208.97 895.837 209.448C865.034 211.966 834.945 209.259 808.823 201.617C780.38 193.283 757.68 179.673 741.371 161.165C728.757 146.85 718.58 131.088 708.728 115.829C702.531 106.235 696.14 96.3266 689.152 86.7959C681.841 76.812 674.568 69.2957 666.271 63.1266C654.123 54.1121 632.616 46.1552 599.104 59.4125C562.066 74.0422 535.101 101.186 509.031 127.437C501.9 134.613 495.159 141.399 488.185 147.984C461.634 172.95 432.439 195.612 401.391 215.34C368.294 236.378 331.398 255.175 288.604 272.789C235.154 294.784 188.483 310.093 145.897 319.561C109.766 327.606 76.4097 331.597 45.011 331.597L45.0239 331.61Z" fill="url(#paint19_linear_2_2383)"/>
<path d="M38.3993 326.964C25.5779 326.964 12.8213 326.309 0.142578 324.912L0.207398 324.333C96.6076 335.022 198.841 301.998 287.087 270.208C332.046 254.017 368.008 238.091 400.25 220.112C431.35 202.763 461.077 182.279 488.586 159.214C496.339 152.68 503.845 145.894 511.792 138.705C538.187 114.821 565.476 90.1323 601.684 76.1951C620.002 69.1321 646.578 63.7184 669.11 78.0584C677.99 83.7114 685.885 90.4597 693.236 98.6684C700.898 107.217 707.924 116.156 714.73 124.793C724.946 137.761 735.498 151.169 748.203 163.268C764.94 179.207 787.627 190.677 815.655 197.337C841.44 203.468 871.166 205.18 901.632 202.31C907.479 201.768 913.429 201.051 919.289 200.169C940.9 196.972 962.277 191.621 982.851 184.256C991.161 181.284 999.199 177.684 1006.98 174.209C1025.27 166.025 1042.56 158.295 1062.93 158.131C1063.07 158.131 1063.2 158.131 1063.34 158.131C1069.53 158.131 1075.93 158.849 1082.39 160.246C1100.07 164.099 1117.39 172.131 1134.14 179.887C1142.11 183.588 1150.36 187.403 1158.42 190.664C1189.41 203.103 1222.53 215.819 1256.92 222.58C1258.36 222.857 1259.81 223.134 1261.27 223.385C1317.97 233.306 1379.16 235.799 1438.21 230.562L1438.26 231.141C1379.16 236.378 1317.91 233.886 1261.15 223.952C1259.7 223.688 1258.24 223.423 1256.79 223.134C1222.33 216.36 1189.19 203.632 1158.18 191.18C1150.1 187.919 1141.84 184.092 1133.87 180.39C1117.16 172.635 1099.86 164.628 1082.25 160.788C1075.69 159.365 1069.2 158.635 1062.92 158.685C1042.67 158.861 1025.44 166.554 1007.21 174.712C999.432 178.187 991.381 181.788 983.046 184.772C962.433 192.15 941.016 197.513 919.367 200.711C913.494 201.58 907.543 202.297 901.684 202.851C871.154 205.734 841.349 204.009 815.499 197.865C787.367 191.18 764.577 179.66 747.762 163.646C735.032 151.509 724.453 138.088 714.237 125.107C707.444 116.471 700.418 107.544 692.769 99.0083C685.444 90.8374 677.601 84.1269 668.76 78.4991C646.436 64.2849 620.067 69.6735 601.879 76.6861C565.774 90.573 538.524 115.237 512.168 139.082C504.221 146.271 496.715 153.07 488.949 159.604C461.401 182.682 431.662 203.191 400.522 220.565C368.255 238.569 332.267 254.496 287.269 270.712C210.548 298.347 123.249 326.914 38.3604 326.914L38.3993 326.964Z" fill="url(#paint20_linear_2_2383)"/>
<path d="M31.1395 322.444C20.7424 322.444 10.4231 322.016 0.181519 321.097L0.233374 320.518C90.5145 328.638 187.77 298.523 273.579 271.945C277.676 270.674 281.746 269.415 285.804 268.168C333.472 253.45 368.514 240.256 399.433 225.362C430.637 210.342 460.908 192.011 489.403 170.872C498.102 164.388 506.529 157.565 515.448 150.35C541.959 128.884 569.391 106.688 604.484 93.5441C622.491 86.7833 648.743 81.2814 671.586 93.4938C681.257 98.6683 689.515 104.372 696.827 110.931C705.137 118.384 712.798 126.215 720.201 133.782C730.792 144.609 741.747 155.789 754.581 165.824C787.743 191.747 843.475 202.675 907.492 195.813C913.299 195.196 919.198 194.428 925.006 193.547C946.306 190.299 967.605 185.25 988.322 178.527C996.1 176.009 1003.67 173.013 1011 170.117C1029.87 162.664 1047.68 155.626 1068.3 156.306C1074.47 156.507 1080.91 157.464 1087.41 159.126C1104.76 163.57 1121.76 171.93 1138.2 180.013C1145.96 183.827 1154 187.781 1161.87 191.205C1192.06 204.274 1224.41 217.657 1258.57 225.274C1259.98 225.589 1261.41 225.891 1262.85 226.18C1319.27 237.612 1381.55 240.76 1438.22 235.056L1438.29 235.636C1381.56 241.351 1319.21 238.191 1262.73 226.76C1261.29 226.47 1259.87 226.155 1258.44 225.853C1224.23 218.223 1191.86 204.815 1161.62 191.747C1153.74 188.322 1145.7 184.369 1137.93 180.541C1121.53 172.471 1104.56 164.137 1087.25 159.705C1080.78 158.043 1074.4 157.111 1068.27 156.897C1047.81 156.217 1030.04 163.243 1011.22 170.671C1003.89 173.567 996.308 176.563 988.503 179.094C967.761 185.829 946.422 190.89 925.084 194.139C919.263 195.033 913.364 195.801 907.543 196.417C894.981 197.765 882.73 198.432 870.92 198.432C822.357 198.432 780.963 187.239 754.192 166.315C741.332 156.268 730.365 145.05 719.76 134.223C712.358 126.656 704.709 118.838 696.412 111.397C689.126 104.863 680.907 99.1971 671.288 94.0477C648.653 81.9487 622.582 87.4128 604.692 94.1359C569.676 107.242 542.296 129.413 515.824 150.854C506.905 158.081 498.465 164.905 489.766 171.388C461.245 192.54 430.936 210.896 399.705 225.941C368.76 240.848 333.693 254.055 285.998 268.785C281.941 270.032 277.87 271.303 273.773 272.562C197.636 296.143 112.476 322.507 31.1395 322.507V322.444Z" fill="url(#paint21_linear_2_2383)"/>
<path d="M24.5797 318.088C16.4383 318.088 8.32286 317.823 0.233337 317.269L0.272229 316.69C78.2376 322.041 159.055 300.046 237.215 278.769C253.562 274.312 269.003 270.107 284.533 266.116C328.248 254.873 364.366 244.537 398.629 230.612C429.963 217.871 460.779 201.693 490.22 182.531C500.06 176.085 509.614 169.21 519.713 161.921C546.147 142.872 573.488 123.181 607.285 110.868C632.642 101.602 655.731 100.922 674.049 108.904C684.887 113.625 693.262 118.158 700.405 123.156C709.311 129.388 717.582 135.998 725.581 142.394C736.574 151.181 747.944 160.271 760.947 168.329C795.146 189.531 849.27 196.959 913.338 189.254C919.068 188.574 924.915 187.768 930.71 186.849C951.647 183.563 972.869 178.817 993.793 172.723C1000.91 170.658 1007.87 168.266 1014.61 165.95C1034.21 159.214 1052.74 152.843 1073.66 154.417C1079.76 154.87 1086.07 156.054 1092.44 157.942C1109.47 162.991 1126.14 171.665 1142.26 180.063C1149.83 184.004 1157.66 188.083 1165.33 191.671C1194.75 205.344 1226.31 219.407 1260.23 227.893C1261.63 228.233 1263.03 228.572 1264.44 228.9C1321.42 241.943 1383.14 245.695 1438.24 239.463L1438.3 240.042C1383.14 246.287 1321.34 242.522 1264.3 229.466C1262.89 229.139 1261.47 228.799 1260.07 228.459C1226.11 219.961 1194.51 205.885 1165.07 192.2C1157.39 188.612 1149.55 184.52 1141.97 180.579C1125.88 172.194 1109.24 163.532 1092.25 158.509C1085.94 156.633 1079.67 155.462 1073.61 155.009C1052.82 153.46 1034.36 159.806 1014.81 166.516C1008.07 168.833 1001.09 171.225 993.961 173.302C973.025 179.396 951.777 184.155 930.814 187.441C925.019 188.36 919.159 189.166 913.416 189.845C849.206 197.563 794.951 190.097 760.623 168.833C747.594 160.75 736.199 151.647 725.192 142.847C717.206 136.464 708.948 129.854 700.055 123.634C692.938 118.649 684.602 114.141 673.803 109.433C655.627 101.514 632.707 102.206 607.492 111.409C573.773 123.685 546.471 143.363 520.063 162.387C509.951 169.676 500.397 176.55 490.544 183.009C461.064 202.196 430.21 218.4 398.85 231.153C364.56 245.091 328.404 255.44 284.676 266.683C269.145 270.674 253.705 274.879 237.358 279.336C167.248 298.422 95 318.1 24.5538 318.1L24.5797 318.088Z" fill="url(#paint22_linear_2_2383)"/>
<path d="M17.0606 313.845C11.4472 313.845 5.84673 313.719 0.272217 313.455L0.298145 312.876C68.6831 316.136 139.713 298.561 208.409 281.564C234.35 275.143 258.839 269.087 283.25 264.076C323.348 255.843 361.215 248.062 397.813 235.862C429.302 225.362 460.675 211.349 491.037 194.176C502.289 187.768 513.231 180.793 524.808 173.415C550.891 156.784 577.869 139.586 610.098 128.192C635.015 119.354 657.987 118.007 676.525 124.314C687.311 127.978 696.114 131.264 703.996 135.393C713.421 140.316 722.236 145.604 730.767 150.716C742.227 157.577 754.076 164.678 767.325 170.86C801.861 186.975 855.804 191.193 919.198 182.732C924.876 181.977 930.684 181.133 936.427 180.189C956.858 176.89 978.003 172.433 999.264 166.957C1005.54 165.345 1011.73 163.52 1017.72 161.757C1038.25 155.726 1057.64 150.023 1079.03 152.541C1085.05 153.246 1091.24 154.669 1097.45 156.771C1114.18 162.424 1130.51 171.439 1146.33 180.139C1153.7 184.205 1161.31 188.398 1168.79 192.149C1196.2 205.81 1228.25 221.17 1261.87 230.524C1263.25 230.902 1264.64 231.279 1266.02 231.632C1323.3 246.299 1384.46 250.655 1438.25 243.895L1438.33 244.474C1384.46 251.247 1323.22 246.891 1265.88 232.198C1264.49 231.846 1263.11 231.468 1261.72 231.091C1228.03 221.724 1195.95 206.351 1168.52 192.678C1161.04 188.926 1153.41 184.721 1146.04 180.655C1130.26 171.955 1113.94 162.966 1097.27 157.325C1091.1 155.235 1084.96 153.825 1078.98 153.12C1057.71 150.615 1038.38 156.306 1017.92 162.311C1011.93 164.074 1005.73 165.887 999.445 167.511C978.158 172.987 957.001 177.444 936.557 180.755C930.801 181.687 924.993 182.543 919.315 183.299C888.914 187.353 860.743 188.561 835.593 186.874C808.278 185.049 785.228 179.836 767.092 171.376C753.804 165.169 741.942 158.068 730.468 151.207C721.951 146.108 713.136 140.82 703.724 135.91C695.88 131.805 687.104 128.532 676.344 124.868C657.935 118.611 635.092 119.945 610.318 128.746C578.155 140.127 551.215 157.3 525.158 173.906C513.581 181.284 502.639 188.272 491.361 194.68C460.96 211.866 429.561 225.903 398.033 236.416C361.397 248.628 323.516 256.409 283.406 264.643C259.007 269.654 234.518 275.71 208.577 282.131C145.443 297.742 80.3248 313.858 17.0865 313.858L17.0606 313.845Z" fill="url(#paint23_linear_2_2383)"/>
<path d="M9.47665 309.753C6.41715 309.753 3.35766 309.716 0.298157 309.64V309.061C60.9307 310.635 123.923 296.093 184.853 282.017C218.573 274.224 250.412 266.872 281.967 262.024C287.334 261.206 292.662 260.388 297.977 259.594C332.461 254.382 365.04 249.459 396.996 241.112C428.693 232.828 460.597 220.968 491.84 205.835C504.882 199.464 517.574 192.351 531.005 184.822C556.362 170.608 582.575 155.915 612.872 145.529C637.335 137.106 660.191 135.091 678.962 139.737L682.696 140.656C691.991 142.935 700.016 144.899 707.535 147.631C717.31 151.182 726.553 155.034 735.498 158.773C747.542 163.797 759.987 168.984 773.651 173.378C808.628 184.621 860.964 185.603 925.019 176.198C930.593 175.392 936.336 174.486 942.105 173.529C961.616 170.281 982.683 166.138 1004.7 161.203C1009.92 160.032 1015.11 158.761 1020.12 157.514C1041.81 152.176 1062.31 147.127 1084.36 150.703C1090.3 151.66 1096.38 153.322 1102.43 155.638C1118.83 161.908 1134.85 171.237 1150.35 180.277C1157.51 184.457 1164.92 188.775 1172.19 192.678C1198.87 206.918 1230.13 222.97 1263.47 233.193C1264.83 233.609 1266.18 234.011 1267.55 234.402C1324.09 250.467 1386.29 255.553 1438.2 248.352L1438.29 248.931C1386.29 256.145 1324.01 251.058 1267.38 234.968C1266.01 234.578 1264.65 234.175 1263.29 233.76C1229.89 223.511 1198.6 207.446 1171.89 193.195C1164.61 189.279 1157.19 184.961 1150.02 180.781C1134.54 171.766 1118.55 162.437 1102.2 156.192C1096.18 153.901 1090.15 152.252 1084.26 151.295C1062.32 147.744 1041.9 152.78 1020.27 158.106C1015.25 159.34 1010.06 160.624 1004.83 161.795C982.799 166.743 961.733 170.885 942.196 174.133C936.427 175.103 930.671 175.997 925.097 176.815C860.951 186.232 808.512 185.25 773.444 173.982C759.754 169.576 747.296 164.376 735.239 159.352C726.307 155.626 717.064 151.773 707.302 148.223C699.809 145.503 691.81 143.539 682.528 141.261L678.794 140.341C660.139 135.734 637.4 137.735 613.041 146.12C582.796 156.495 556.608 171.175 531.277 185.376C517.833 192.905 505.128 200.031 492.074 206.401C460.792 221.547 428.848 233.432 397.113 241.729C365.117 250.089 332.526 255.012 298.029 260.224C292.727 261.03 287.385 261.836 282.031 262.654C250.503 267.501 218.663 274.854 184.957 282.634C127.06 296.005 67.296 309.816 9.43776 309.816L9.47665 309.753Z" fill="url(#paint24_linear_2_2383)"/>
<path d="M1.87975 305.812C1.36119 305.812 0.855595 305.812 0.337036 305.812V305.233C0.842631 305.233 1.36119 305.233 1.87975 305.233C55.5636 305.233 111.27 292.933 165.148 281.023C203.534 272.537 243.23 263.774 280.696 259.972C290.069 259.015 299.442 258.147 308.517 257.303C338.904 254.47 367.607 251.801 396.192 246.362C428.135 240.281 460.597 230.562 492.67 217.481C508.019 211.173 522.993 203.833 538.848 196.078C562.935 184.293 587.839 172.106 615.685 162.84C639.708 154.82 662.446 152.151 681.452 155.135C685.056 155.701 688.53 156.192 691.888 156.671C698.668 157.628 705.072 158.547 711.126 159.856C720.927 161.984 730.3 164.351 739.388 166.629C752.3 169.878 765.64 173.239 780.043 175.883C815.136 182.342 864.49 180.29 930.904 169.638C936.427 168.757 942.131 167.813 947.861 166.831C968.746 163.255 990.176 159.226 1010.22 155.399C1014.09 154.656 1017.97 153.876 1021.72 153.12C1044.91 148.449 1066.81 144.043 1089.77 148.802C1095.62 150.023 1101.59 151.912 1107.47 154.442C1123.56 161.316 1139.26 170.998 1154.46 180.353C1161.42 184.633 1168.61 189.065 1175.68 193.131C1201.64 207.95 1232.12 224.695 1265.15 235.799C1266.49 236.24 1267.83 236.68 1269.17 237.109C1325.66 254.798 1387.28 260.501 1438.24 252.745L1438.33 253.325C1387.26 261.093 1325.54 255.377 1268.98 237.663C1267.63 237.234 1266.28 236.794 1264.95 236.353C1231.86 225.224 1201.36 208.466 1175.37 193.635C1168.29 189.568 1161.09 185.137 1154.13 180.856C1138.96 171.514 1123.28 161.845 1107.23 154.984C1101.37 152.478 1095.46 150.59 1089.62 149.381C1066.79 144.635 1044.95 149.041 1021.82 153.699C1018.07 154.455 1014.2 155.235 1010.31 155.978C990.266 159.806 968.85 163.847 947.952 167.41C942.222 168.392 936.518 169.336 930.995 170.218C864.503 180.881 815.097 182.934 779.926 176.462C765.51 173.806 752.157 170.444 739.232 167.196C730.157 164.917 720.784 162.55 710.996 160.423C704.968 159.113 698.564 158.207 691.797 157.237C688.439 156.759 684.965 156.268 681.348 155.701C662.446 152.73 639.811 155.386 615.88 163.381C588.072 172.635 563.181 184.809 539.12 196.581C523.252 204.349 508.279 211.677 492.903 217.997C460.792 231.09 428.291 240.823 396.309 246.916C367.697 252.368 338.982 255.037 308.582 257.87C299.507 258.713 290.134 259.582 280.761 260.539C243.334 264.341 203.664 273.104 165.291 281.577C111.374 293.487 55.6414 305.8 1.89271 305.8L1.87975 305.812Z" fill="url(#paint25_linear_2_2383)"/>
<path d="M0.388916 301.985V301.406C49.0427 300.55 99.5374 289.66 148.36 279.134C191.932 269.742 236.969 260.023 279.413 257.92C291.793 257.303 304.122 256.9 316.062 256.51C343.455 255.603 369.318 254.76 395.375 251.6C427.617 247.697 460.623 240.13 493.474 229.127C511.922 222.882 529.968 215.227 549.063 207.107C571.076 197.752 593.828 188.096 618.473 180.164C642.054 172.547 664.676 169.223 683.889 170.558C689.204 170.923 694.208 171.112 699.07 171.288C704.515 171.489 709.648 171.678 714.678 172.106C723.636 172.862 732.348 173.743 740.762 174.586C755.995 176.122 770.372 177.57 786.369 178.414C828.463 180.655 883.508 172.371 936.725 163.104C942.3 162.135 947.9 161.153 953.54 160.158C971.65 156.973 994.208 153.007 1015.65 149.62C1017.76 149.28 1019.88 148.953 1021.98 148.613C1047.14 144.572 1070.92 140.77 1095.09 146.939C1100.89 148.424 1106.73 150.552 1112.47 153.284C1128.24 160.788 1143.63 170.809 1158.51 180.491C1165.25 184.885 1172.23 189.418 1179.09 193.623C1204.35 209.02 1234.05 226.445 1266.76 238.443C1268.07 238.922 1269.39 239.387 1270.72 239.853C1327.02 259.179 1388.07 265.499 1438.21 257.19L1438.31 257.769C1388.08 266.104 1326.92 259.771 1270.52 240.407C1269.19 239.954 1267.86 239.476 1266.55 238.997C1233.81 226.986 1204.07 209.536 1178.78 194.126C1171.91 189.921 1164.93 185.376 1158.19 180.982C1143.32 171.3 1127.94 161.304 1112.21 153.813C1106.51 151.106 1100.71 148.978 1094.95 147.518C1070.89 141.374 1047.18 145.176 1022.08 149.205C1019.98 149.545 1017.87 149.885 1015.75 150.212C994.311 153.599 971.767 157.565 953.656 160.75C948.03 161.745 942.417 162.727 936.842 163.696C883.586 172.975 828.502 181.247 786.343 179.018C770.333 178.162 755.943 176.714 740.71 175.191C732.296 174.347 723.598 173.466 714.639 172.71C709.622 172.282 704.502 172.094 699.07 171.892C694.208 171.716 689.191 171.527 683.876 171.162C664.741 169.84 642.197 173.151 618.68 180.743C594.061 188.662 571.323 198.319 549.323 207.673C530.214 215.794 512.155 223.461 493.681 229.706C460.779 240.735 427.734 248.301 395.453 252.204C369.357 255.364 343.481 256.22 316.075 257.114C304.148 257.505 291.819 257.907 279.439 258.524C237.046 260.627 192.022 270.334 148.489 279.726C99.6282 290.264 49.1076 301.154 0.388916 302.01V301.985Z" fill="url(#paint26_linear_2_2383)"/>
<path d="M0.427783 298.17L0.401855 297.591C43.883 295.879 88.9329 286.109 132.505 276.667C180.938 266.166 231.018 255.352 278.142 255.88C290.821 256.031 303.461 256.384 315.686 256.737C342.845 257.517 368.501 258.247 394.572 256.862C427.15 255.138 460.701 249.724 494.304 240.785C517.094 234.654 539.444 226.432 563.116 217.733C581.772 210.871 601.049 203.783 621.273 197.5C643.091 190.689 665.441 187.944 686.339 185.98C695.569 185.124 704.048 184.835 712.267 184.57C714.276 184.507 716.273 184.444 718.256 184.369C722.833 184.193 727.344 184.042 731.804 183.878C752.248 183.148 771.564 182.468 792.747 180.957C828.035 178.439 871.568 170.117 917.642 161.316C925.849 159.743 934.171 158.156 942.598 156.57C948.121 155.538 953.682 154.505 959.27 153.485C982.281 149.318 1002.52 146.171 1021.13 143.841C1048.63 140.417 1074.58 137.181 1100.47 145.075C1106.2 146.825 1111.92 149.192 1117.48 152.113C1132.95 160.246 1148.04 170.621 1162.64 180.642C1169.16 185.124 1175.91 189.757 1182.55 194.101C1213.04 213.905 1239.3 229.479 1268.41 241.062C1269.69 241.565 1270.99 242.082 1272.3 242.56C1327.51 263.233 1389.53 270.346 1438.21 261.584L1438.31 262.163C1389.52 270.938 1327.37 263.812 1272.06 243.114C1270.76 242.623 1269.46 242.119 1268.16 241.603C1239.01 229.995 1212.7 214.409 1182.19 194.579C1175.53 190.236 1168.78 185.603 1162.26 181.108C1147.69 171.086 1132.61 160.737 1117.17 152.617C1111.65 149.708 1105.96 147.354 1100.27 145.617C1074.51 137.76 1048.6 140.996 1021.19 144.408C1002.58 146.737 982.359 149.885 959.348 154.052C953.76 155.072 948.198 156.092 942.676 157.137C934.262 158.723 925.926 160.309 917.72 161.883C871.62 170.696 828.074 179.018 792.747 181.536C771.551 183.047 752.235 183.727 731.791 184.457C727.331 184.621 722.833 184.772 718.243 184.948C716.26 185.024 714.263 185.086 712.254 185.149C704.061 185.414 695.582 185.703 686.365 186.56C665.506 188.511 643.195 191.256 621.428 198.054C601.218 204.337 581.94 211.425 563.298 218.286C539.613 226.999 517.237 235.22 494.433 241.351C460.805 250.303 427.202 255.717 394.585 257.442C368.488 258.826 342.819 258.096 315.647 257.316C303.422 256.963 290.795 256.611 278.116 256.46C231.018 255.88 181.016 266.746 132.622 277.233C89.0236 286.676 43.9479 296.446 0.414819 298.17H0.427783Z" fill="url(#paint27_linear_2_2383)"/>
<path d="M0.466687 294.343L0.427795 293.764C40.2013 291.309 81.349 282.42 121.135 273.821C172.901 262.629 226.442 251.071 276.859 253.828C293.323 254.735 309.658 256.22 325.461 257.655C348.9 259.783 371.042 261.798 393.755 262.112C426.735 262.566 460.831 259.317 495.107 252.443C524.38 246.501 553.225 237.26 583.755 227.464C596.81 223.272 610.318 218.941 624.06 214.824C646.734 208 669.123 203.355 688.802 201.403C697.125 200.572 704.916 199.313 712.448 198.092C715.663 197.576 718.71 197.085 721.795 196.619C747.918 192.716 772.472 188.549 799.061 183.5C820.503 179.433 844.292 173.78 869.468 167.813C894.683 161.833 920.754 155.638 948.406 150.036C954.097 148.89 959.659 147.807 964.935 146.825C986.65 142.784 1007.38 139.838 1026.57 138.075C1053.73 135.582 1080.22 134.109 1105.8 143.212C1111.45 145.226 1117.07 147.832 1122.46 150.955C1137.63 159.73 1152.41 170.457 1166.71 180.818C1173.01 185.389 1179.54 190.122 1185.96 194.592C1215.61 215.114 1241.24 231.317 1270.02 243.706C1271.29 244.247 1272.56 244.788 1273.84 245.305C1328.7 267.614 1390.13 275.357 1438.18 266.028L1438.3 266.594C1390.14 275.949 1328.57 268.193 1273.61 245.846C1272.31 245.317 1271.04 244.788 1269.77 244.234C1240.95 231.833 1215.28 215.605 1185.61 195.058C1179.18 190.588 1172.66 185.854 1166.34 181.272C1152.06 170.91 1137.29 160.196 1122.15 151.446C1116.78 148.336 1111.21 145.742 1105.58 143.753C1080.12 134.688 1053.7 136.161 1026.6 138.654C1007.44 140.417 986.727 143.35 965.039 147.392C959.762 148.374 954.201 149.456 948.51 150.602C920.87 156.205 894.813 162.386 869.598 168.367C844.409 174.347 820.62 179.987 799.164 184.067C772.562 189.115 747.996 193.295 721.873 197.198C718.788 197.664 715.754 198.155 712.539 198.671C704.994 199.892 697.203 201.151 688.854 201.982C669.201 203.934 646.851 208.567 624.229 215.378C610.487 219.495 596.991 223.826 583.937 228.018C553.38 237.814 524.523 247.067 495.211 253.01C460.882 259.896 426.761 263.157 393.729 262.691C370.99 262.377 348.835 260.362 325.383 258.235C309.593 256.799 293.258 255.314 276.794 254.407C226.429 251.637 172.965 263.195 121.226 274.388C81.4138 282.987 40.2531 291.888 0.427795 294.343H0.466687Z" fill="url(#paint28_linear_2_2383)"/>
<path d="M0.505591 290.528L0.453735 289.949C36.5584 286.915 73.8428 278.681 109.896 270.724C164.954 258.575 221.891 246.01 275.575 251.788C293.414 253.702 311.123 256.422 328.235 259.04C349.418 262.289 371.314 265.65 392.938 267.362C426.32 270.019 460.973 268.911 495.924 264.089C535.944 258.486 575.549 247.004 617.474 234.855L626.86 232.135C648.99 225.714 671.262 220.427 691.265 216.813C701.546 214.963 711.178 212.495 720.486 210.115C722.12 209.7 723.753 209.284 725.374 208.869C753.778 201.68 781.222 193.358 805.426 186.031C815.564 182.959 825.935 179.698 836.916 176.248C872.009 165.219 911.796 152.705 954.253 143.489C959.762 142.293 965.285 141.172 970.639 140.14C991.835 136.086 1012.5 133.442 1032.02 132.296C1057.86 130.773 1085.33 130.823 1111.16 141.348C1116.8 143.665 1122.29 146.51 1127.46 149.796C1142.35 159.226 1156.84 170.318 1170.84 181.045C1176.91 185.691 1183.2 190.5 1189.39 195.083C1214.32 213.452 1241.55 232.387 1271.65 246.35C1272.89 246.929 1274.15 247.495 1275.42 248.049C1300.61 259.078 1328.29 267.111 1355.45 271.278C1385.64 275.898 1413.48 275.634 1438.19 270.46L1438.31 271.026C1413.53 276.213 1385.63 276.478 1355.36 271.844C1328.13 267.677 1300.42 259.632 1275.18 248.578C1273.91 248.011 1272.65 247.445 1271.4 246.866C1241.25 232.878 1214 213.93 1189.04 195.536C1182.85 190.953 1176.56 186.144 1170.49 181.486C1156.49 170.771 1142.01 159.68 1127.15 150.262C1122.01 147.001 1116.55 144.169 1110.94 141.865C1085.23 131.39 1057.85 131.339 1032.08 132.863C1012.58 134.008 991.952 136.652 970.769 140.706C965.402 141.739 959.892 142.859 954.395 144.055C911.951 153.271 872.191 165.773 837.11 176.802C826.13 180.252 815.758 183.513 805.621 186.585C781.404 193.925 753.946 202.234 725.542 209.436C723.922 209.851 722.288 210.266 720.655 210.682C711.334 213.061 701.688 215.542 691.395 217.392C671.405 220.993 649.145 226.294 627.042 232.702L617.656 235.421C575.704 247.583 536.086 259.066 496.015 264.668C461.012 269.503 426.32 270.598 392.899 267.942C371.25 266.217 349.34 262.855 328.144 259.607C311.032 256.988 293.336 254.269 275.51 252.355C221.93 246.601 165.044 259.154 110.025 271.278C73.9465 279.235 36.6492 287.469 0.492627 290.516L0.505591 290.528Z" fill="url(#paint29_linear_2_2383)"/>
<path d="M0.544495 286.701L0.479675 286.122C33.3174 282.609 67.1534 274.917 99.8875 267.476C157.823 254.307 217.73 240.684 274.305 249.736C293.219 252.758 312.004 256.812 330.167 260.728C350.416 265.096 371.353 269.616 392.147 272.613C425.983 277.485 461.181 278.542 496.754 275.747C544.189 271.958 590.574 260.337 629.673 249.459C650.325 243.706 671.884 237.914 693.754 232.236C706.07 229.038 717.44 225.161 728.978 221.119C753.985 212.382 777.32 202.775 802.017 192.603C805.271 191.256 808.537 189.921 811.817 188.561L818.299 185.905C860.264 168.644 907.842 149.079 960.138 136.942C965.583 135.683 971.054 134.512 976.395 133.455C996.93 129.413 1018.07 127.009 1037.53 126.505C1070.51 125.649 1095.62 129.766 1116.55 139.46C1122.12 142.054 1127.49 145.138 1132.51 148.613C1147.12 158.723 1161.34 170.205 1175.08 181.309C1180.9 186.018 1186.92 190.878 1192.87 195.549C1217.08 214.535 1243.6 234.15 1273.32 248.968C1274.54 249.573 1275.79 250.177 1277.03 250.769C1301.77 262.465 1329.13 271.039 1356.17 275.546C1385.85 280.494 1414.21 280.255 1438.22 274.879L1438.35 275.445C1414.27 280.846 1385.82 281.086 1356.07 276.125C1328.98 271.605 1301.54 263.032 1276.77 251.298C1275.53 250.706 1274.28 250.102 1273.05 249.497C1243.28 234.666 1216.75 215.026 1192.49 196.015C1186.54 191.344 1180.53 186.471 1174.69 181.775C1160.95 170.671 1146.74 159.201 1132.14 149.104C1127.15 145.654 1121.81 142.595 1116.28 140.001C1095.44 130.345 1070.42 126.253 1037.53 127.097C1018.1 127.6 996.995 130.005 976.499 134.034C971.158 135.091 965.7 136.262 960.268 137.509C908.023 149.633 860.471 169.185 818.533 186.446L812.051 189.115C808.771 190.462 805.504 191.81 802.25 193.144C777.541 203.317 754.205 212.923 729.185 221.673C717.634 225.715 706.252 229.592 693.91 232.803C672.04 238.481 650.494 244.272 629.842 250.026C590.704 260.904 544.293 272.537 496.806 276.327C461.181 279.134 425.932 278.077 392.057 273.192C371.237 270.195 350.287 265.675 330.037 261.307C311.887 257.391 293.116 253.337 274.214 250.316C217.756 241.288 157.914 254.886 100.043 268.042C67.296 275.483 33.4341 283.188 0.557459 286.701H0.544495Z" fill="url(#paint30_linear_2_2383)"/>
<path d="M486.888 288.111C454.439 288.111 422.302 284.863 391.188 278.454C370.964 274.237 350.702 268.622 331.126 263.183C312.186 257.92 292.584 252.494 272.892 248.276C213.854 235.799 151.419 250.517 91.0461 264.744C61.2808 271.757 30.5172 279.008 0.583399 282.899L0.505615 282.32C30.4006 278.442 61.1641 271.19 90.9035 264.177C151.354 249.925 213.854 235.195 273.021 247.71C292.74 251.927 312.341 257.366 331.295 262.629C350.87 268.055 371.107 273.67 391.318 277.888C425.789 285.001 461.531 288.212 497.557 287.419C539.911 286.462 584.04 279.726 632.461 266.809C654.811 260.841 676.253 254.407 696.205 247.684C707.38 243.92 718.93 239.387 732.543 233.407C758.237 222.127 783.271 209.184 807.474 196.657C811.027 194.819 814.592 192.981 818.17 191.13C858.825 170.306 909.436 144.383 965.959 130.421C971.313 129.099 976.732 127.877 982.073 126.795C1002.3 122.703 1023.36 120.613 1042.98 120.739C1074.73 120.953 1100.55 126.467 1121.89 137.609C1127.4 140.493 1132.65 143.804 1137.5 147.467C1151.86 158.295 1165.84 170.193 1179.35 181.712C1184.89 186.434 1190.62 191.331 1196.29 196.065C1219.82 215.68 1245.62 235.988 1274.93 251.625C1276.14 252.267 1277.34 252.897 1278.57 253.526C1319.9 274.589 1383.53 292.429 1438.18 279.323L1438.33 279.89C1383.52 293.034 1319.72 275.168 1278.29 254.042C1277.06 253.413 1275.84 252.783 1274.64 252.141C1245.28 236.467 1219.44 216.146 1195.9 196.506C1190.24 191.772 1184.49 186.887 1178.94 182.153C1165.44 170.646 1151.47 158.736 1137.12 147.933C1132.3 144.295 1127.08 140.996 1121.59 138.138C1100.33 127.046 1074.61 121.557 1042.95 121.343C1023.39 121.217 1002.36 123.307 982.177 127.386C976.849 128.469 971.443 129.678 966.089 131C909.631 144.949 859.058 170.847 818.429 191.659C814.864 193.497 811.299 195.335 807.747 197.186C783.53 209.713 758.484 222.668 732.776 233.949C719.151 239.929 707.587 244.474 696.386 248.251C676.422 254.974 654.966 261.408 632.603 267.388C584.131 280.318 539.95 287.066 497.557 288.023C493.992 288.098 490.427 288.136 486.875 288.136L486.888 288.111Z" fill="url(#paint31_linear_2_2383)"/>
<path d="M513.685 299.945C471.759 299.945 430.456 294.519 390.345 283.704C370.575 278.366 350.883 271.668 331.826 265.197C312.212 258.524 291.936 251.637 271.569 246.224C210.237 229.945 145.521 245.896 82.9306 261.332C55.8618 268.005 27.8596 274.904 0.596363 279.071L0.505615 278.492C27.7429 274.337 55.7192 267.438 82.775 260.765C145.43 245.317 210.224 229.34 271.712 245.67C292.104 251.083 312.38 257.983 332.008 264.656C351.039 271.127 370.731 277.825 390.488 283.15C447.452 298.51 506.827 302.992 566.993 296.471C627.145 289.949 684.044 272.852 736.121 245.67C762.023 232.148 787.212 216.637 811.558 201.655C865.696 168.329 921.687 133.87 987.777 120.134C1015.04 114.469 1042.97 113.273 1068.52 116.697C1098.46 120.701 1123.35 130.66 1142.5 146.309C1156.67 157.892 1170.44 170.268 1183.74 182.241C1212.25 207.874 1241.72 234.389 1276.58 254.269C1339.85 290.364 1403.18 292.706 1438.18 283.755L1438.34 284.321C1414.33 290.465 1385.58 290.453 1355.2 284.283C1327.94 278.744 1299.91 268.269 1276.28 254.785C1241.37 234.867 1211.87 208.34 1183.34 182.682C1170.04 170.721 1156.28 158.345 1142.13 146.775C1123.07 131.188 1098.28 121.267 1068.45 117.289C1042.97 113.877 1015.11 115.073 987.92 120.726C921.933 134.437 865.994 168.87 811.895 202.171C787.536 217.166 762.347 232.677 736.419 246.211C684.278 273.431 627.301 290.553 567.07 297.088C549.193 299.026 531.381 299.996 513.685 299.996V299.945Z" fill="url(#paint32_linear_2_2383)"/>
</g>
<defs>
<linearGradient id="paint0_linear_2_2383" x1="0.544495" y1="90.6484" x2="1440" y2="90.6484" gradientUnits="userSpaceOnUse">
<stop stop-color="#3DFFED"/>
<stop offset="1" stop-color="#CB00DD"/>
</linearGradient>
<linearGradient id="paint1_linear_2_2383" x1="0.518579" y1="101.35" x2="1439.9" y2="101.35" gradientUnits="userSpaceOnUse">
<stop stop-color="#3DFFED"/>
<stop offset="1" stop-color="#CB00DD"/>
</linearGradient>
<linearGradient id="paint2_linear_2_2383" x1="0.492615" y1="111.838" x2="1439.78" y2="111.838" gradientUnits="userSpaceOnUse">
<stop stop-color="#3DFFED"/>
<stop offset="1" stop-color="#CB00DD"/>
</linearGradient>
<linearGradient id="paint3_linear_2_2383" x1="0.466675" y1="122.111" x2="1439.68" y2="122.111" gradientUnits="userSpaceOnUse">
<stop stop-color="#3DFFED"/>
<stop offset="1" stop-color="#CB00DD"/>
</linearGradient>
<linearGradient id="paint4_linear_2_2383" x1="0.440771" y1="128.381" x2="1439.57" y2="128.381" gradientUnits="userSpaceOnUse">
<stop stop-color="#3DFFED"/>
<stop offset="1" stop-color="#CB00DD"/>
</linearGradient>
<linearGradient id="paint5_linear_2_2383" x1="0.414819" y1="132.611" x2="1439.46" y2="132.611" gradientUnits="userSpaceOnUse">
<stop stop-color="#3DFFED"/>
<stop offset="1" stop-color="#CB00DD"/>
</linearGradient>
<linearGradient id="paint6_linear_2_2383" x1="0.375977" y1="136.401" x2="1439.35" y2="136.401" gradientUnits="userSpaceOnUse">
<stop stop-color="#3DFFED"/>
<stop offset="1" stop-color="#CB00DD"/>
</linearGradient>
<linearGradient id="paint7_linear_2_2383" x1="0.337036" y1="140.102" x2="1439.25" y2="140.102" gradientUnits="userSpaceOnUse">
<stop stop-color="#3DFFED"/>
<stop offset="1" stop-color="#CB00DD"/>
</linearGradient>
<linearGradient id="paint8_linear_2_2383" x1="0.298157" y1="143.778" x2="1439.14" y2="143.778" gradientUnits="userSpaceOnUse">
<stop stop-color="#3DFFED"/>
<stop offset="1" stop-color="#CB00DD"/>
</linearGradient>
<linearGradient id="paint9_linear_2_2383" x1="0.259277" y1="147.43" x2="1439.03" y2="147.43" gradientUnits="userSpaceOnUse">
<stop stop-color="#3DFFED"/>
<stop offset="1" stop-color="#CB00DD"/>
</linearGradient>
<linearGradient id="paint10_linear_2_2383" x1="0.220398" y1="151.106" x2="1438.92" y2="151.106" gradientUnits="userSpaceOnUse">
<stop stop-color="#3DFFED"/>
<stop offset="1" stop-color="#CB00DD"/>
</linearGradient>
<linearGradient id="paint11_linear_2_2383" x1="0.181494" y1="154.757" x2="1438.82" y2="154.757" gradientUnits="userSpaceOnUse">
<stop stop-color="#3DFFED"/>
<stop offset="1" stop-color="#CB00DD"/>
</linearGradient>
<linearGradient id="paint12_linear_2_2383" x1="0.142578" y1="158.383" x2="1438.72" y2="158.383" gradientUnits="userSpaceOnUse">
<stop stop-color="#3DFFED"/>
<stop offset="1" stop-color="#CB00DD"/>
</linearGradient>
<linearGradient id="paint13_linear_2_2383" x1="0.116699" y1="161.996" x2="1438.6" y2="161.996" gradientUnits="userSpaceOnUse">
<stop stop-color="#3DFFED"/>
<stop offset="1" stop-color="#CB00DD"/>
</linearGradient>
<linearGradient id="paint14_linear_2_2383" x1="0.0777588" y1="165.66" x2="1438.5" y2="165.66" gradientUnits="userSpaceOnUse">
<stop stop-color="#3DFFED"/>
<stop offset="1" stop-color="#CB00DD"/>
</linearGradient>
<linearGradient id="paint15_linear_2_2383" x1="0.0388794" y1="169.349" x2="1438.39" y2="169.349" gradientUnits="userSpaceOnUse">
<stop stop-color="#3DFFED"/>
<stop offset="1" stop-color="#CB00DD"/>
</linearGradient>
<linearGradient id="paint16_linear_2_2383" x1="0" y1="173" x2="1438.29" y2="173" gradientUnits="userSpaceOnUse">
<stop stop-color="#3DFFED"/>
<stop offset="1" stop-color="#CB00DD"/>
</linearGradient>
<linearGradient id="paint17_linear_2_2383" x1="0.0389039" y1="179.22" x2="1438.29" y2="179.22" gradientUnits="userSpaceOnUse">
<stop stop-color="#3DFFED"/>
<stop offset="1" stop-color="#CB00DD"/>
</linearGradient>
<linearGradient id="paint18_linear_2_2383" x1="0.0777588" y1="185.464" x2="1438.29" y2="185.464" gradientUnits="userSpaceOnUse">
<stop stop-color="#3DFFED"/>
<stop offset="1" stop-color="#CB00DD"/>
</linearGradient>
<linearGradient id="paint19_linear_2_2383" x1="0.116699" y1="191.709" x2="1438.29" y2="191.709" gradientUnits="userSpaceOnUse">
<stop stop-color="#3DFFED"/>
<stop offset="1" stop-color="#CB00DD"/>
</linearGradient>
<linearGradient id="paint20_linear_2_2383" x1="0.155542" y1="198.017" x2="1438.3" y2="198.017" gradientUnits="userSpaceOnUse">
<stop stop-color="#3DFFED"/>
<stop offset="1" stop-color="#CB00DD"/>
</linearGradient>
<linearGradient id="paint21_linear_2_2383" x1="0.194483" y1="204.349" x2="1438.3" y2="204.349" gradientUnits="userSpaceOnUse">
<stop stop-color="#3DFFED"/>
<stop offset="1" stop-color="#CB00DD"/>
</linearGradient>
<linearGradient id="paint22_linear_2_2383" x1="0.233337" y1="210.732" x2="1438.3" y2="210.732" gradientUnits="userSpaceOnUse">
<stop stop-color="#3DFFED"/>
<stop offset="1" stop-color="#CB00DD"/>
</linearGradient>
<linearGradient id="paint23_linear_2_2383" x1="0.272217" y1="217.116" x2="1438.31" y2="217.116" gradientUnits="userSpaceOnUse">
<stop stop-color="#3DFFED"/>
<stop offset="1" stop-color="#CB00DD"/>
</linearGradient>
<linearGradient id="paint24_linear_2_2383" x1="0.311121" y1="223.511" x2="1438.31" y2="223.511" gradientUnits="userSpaceOnUse">
<stop stop-color="#3DFFED"/>
<stop offset="1" stop-color="#CB00DD"/>
</linearGradient>
<linearGradient id="paint25_linear_2_2383" x1="0.35" y1="226.281" x2="1438.31" y2="226.281" gradientUnits="userSpaceOnUse">
<stop stop-color="#3DFFED"/>
<stop offset="1" stop-color="#CB00DD"/>
</linearGradient>
<linearGradient id="paint26_linear_2_2383" x1="0.375952" y1="222.832" x2="1438.33" y2="222.832" gradientUnits="userSpaceOnUse">
<stop stop-color="#3DFFED"/>
<stop offset="1" stop-color="#CB00DD"/>
</linearGradient>
<linearGradient id="paint27_linear_2_2383" x1="0.401855" y1="219.168" x2="1438.33" y2="219.168" gradientUnits="userSpaceOnUse">
<stop stop-color="#3DFFED"/>
<stop offset="1" stop-color="#CB00DD"/>
</linearGradient>
<linearGradient id="paint28_linear_2_2383" x1="0.427795" y1="215.252" x2="1438.33" y2="215.252" gradientUnits="userSpaceOnUse">
<stop stop-color="#3DFFED"/>
<stop offset="1" stop-color="#CB00DD"/>
</linearGradient>
<linearGradient id="paint29_linear_2_2383" x1="0.453735" y1="211.047" x2="1438.34" y2="211.047" gradientUnits="userSpaceOnUse">
<stop stop-color="#3DFFED"/>
<stop offset="1" stop-color="#CB00DD"/>
</linearGradient>
<linearGradient id="paint30_linear_2_2383" x1="0.479675" y1="206.553" x2="1438.34" y2="206.553" gradientUnits="userSpaceOnUse">
<stop stop-color="#3DFFED"/>
<stop offset="1" stop-color="#CB00DD"/>
</linearGradient>
<linearGradient id="paint31_linear_2_2383" x1="0.505615" y1="204.425" x2="1438.34" y2="204.425" gradientUnits="userSpaceOnUse">
<stop stop-color="#3DFFED"/>
<stop offset="1" stop-color="#CB00DD"/>
</linearGradient>
<linearGradient id="paint32_linear_2_2383" x1="0.518579" y1="207.358" x2="1438.34" y2="207.358" gradientUnits="userSpaceOnUse">
<stop stop-color="#3DFFED"/>
<stop offset="1" stop-color="#CB00DD"/>
</linearGradient>
<clipPath id="clip0_2_2383">
<rect width="1440" height="346" fill="white"/>
</clipPath>
</defs>
</svg>
